<svg xmlns="http://www.w3.org/2000/svg" viewBox="0 0 100.91 142.63"><defs><style>.a{fill:#e3e1cc;}.b{fill:#64609f;}.c{fill:#3b3a34;}.d,.g{fill:none;stroke:#3b3a34;stroke-width:2px;}.d{stroke-linejoin:round;}.e{fill:#9a95c4;}.f{fill:#a1b787;}.g{stroke-miterlimit:10;}</style></defs><path class="a" d="M83,178.73s.3-6.39-1.24-6.51c0,0-1.48-1.58-2.52,2.47,0,0,.86-4.69-1.46-5.51A2,2,0,0,0,75.74,171s.41-4.23-.7-4.54c0,0-1.73-1.46-2.22,1.47,0,0-.25-5.69-2.47-3.63l12.57,58.6a9.45,9.45,0,0,1,2.35,1.92s2.56-1.94,3,4l2.59,3.74-2.52-18.77Z" transform="translate(-68.37 -95.33)"/><path class="b" d="M73.54,166.31l13.33,62.12-2-3-13.7-61.16s.44-1.63,1.62,1.11S73.54,166.31,73.54,166.31Z" transform="translate(-68.37 -95.33)"/><path class="b" d="M79.24,174.06l10.51,57.17-1.49-2.35L75.87,169.53a1.63,1.63,0,0,1,1.92-.35S79.34,168.84,79.24,174.06Z" transform="translate(-68.37 -95.33)"/><polygon class="c" points="77.83 79.3 76.86 76.6 76.05 75.47 75.4 75.21 73.63 75.88 72.34 73.64 71.08 72.9 69.77 73.85 69.16 71.23 67.63 70.78 67.19 69.92 17.16 69.92 17.14 69.86 14.73 67.11 12.23 66.65 10.33 67.46 9.27 68.98 7.5 67.15 4.59 66.71 2.77 67.68 3.34 68.53 5.17 70.99 6.44 70.99 7.5 71.95 7.5 74.2 9.42 73.85 10.8 75.1 11.35 77.45 12.23 76.6 13.72 77.45 14.55 78.65 14.75 81.27 16.52 79.85 17.25 79.61 17.54 83.4 59.97 82.42 61.68 81.43 62.28 82.42 63.08 81.27 65.13 79.43 66.97 79.15 68.94 80.17 70.56 81.98 71.7 80.32 73.64 79.3 74.81 79.3 76.44 79.63 77.99 80.99 77.83 79.3"/><polygon class="a" points="16.52 95.15 5.4 84.91 10.26 108.12 19.96 118.53 16.52 95.15"/><path class="d" d="M0,0" transform="translate(-68.37 -95.33)"/><path class="d" d="M0,0" transform="translate(-68.37 -95.33)"/><line class="d" x1="10.05" y1="107.17" x2="20.12" y2="118.83"/><line class="d" x1="5.08" y1="84.62" x2="16.52" y2="95.15"/><line class="d" x1="19.78" y1="134.19" x2="23.02" y2="137.9"/><line class="d" x1="1.82" y1="69.86" x2="14.55" y2="127.58"/><path class="d" d="M85.18,163.77a3,3,0,0,0-.36,1.41,3.68,3.68,0,0,0-7.31,0,3.69,3.69,0,0,0-7.32,0" transform="translate(-68.37 -95.33)"/><path class="d" d="M70.19,165.19c.07-.83.29-1.86,1.3-1.37,1.68.81,1.33,2.47,1.33,4.12.08-.86.54-2.21,1.81-1.7,2,.83,1.2,3.41,1.11,4.77.09-.92.55-2.35,2-1.87,2.54.86,1.54,3.69,1.56,5.55h0c.09-1,.54-3.29,2-2.73,2.53.95,1.75,4.77,1.75,6.77" transform="translate(-68.37 -95.33)"/><path class="d" d="M134.46,165.42a14.8,14.8,0,0,1,.38,2.35c-.05-.87.21-2.27,1.54-1.94,2.13.53,1.68,3.19,1.79,4.56,0-.92.21-2.41,1.66-2.13,2.64.49,2,3.43,2.33,5.26h0c0-1,.07-3.33,1.61-3,2.63.58,2.41,4.79,2.69,6.77" transform="translate(-68.37 -95.33)"/><path class="a" d="M109,147.31s-20.39.06-24.12,16.12a15.46,15.46,0,0,0,3,10.4c1.38,1.75,47.71-7.89,47.71-7.89s2.43-7.31-9.54-14.71C126,151.23,117.2,146.75,109,147.31Z" transform="translate(-68.37 -95.33)"/><path class="e" d="M109.9,192.91s-.53-7.15-13-11.92c0,0-9.93-6.25-10.43-9.5s3.28-2.11,3.28-2.11,2.41,2.47,4.94,2.2,4.83.06,4.83-5.06c0-2.89,2.64-5.62,3.9-4.73s1.57,2.4,1.57,4.15c0,4.83,3.11,3.09,4,1.87s.36-4.12,3.4-4.38,3,3.16,3,3.16a2.56,2.56,0,0,0,4.06.13c2.16-2.28,6.3-.78,6.3-.78s3.33.78,4.21-.86,0-6.79,4-6.05c0,0,4.15,6.4-2.17,15.37-3.21,4.56-9.55,6.2-9.55,6.2S110.81,187.22,109.9,192.91Z" transform="translate(-68.37 -95.33)"/><path class="f" d="M109.9,154.4l-1.38-.63-.7-2.29-1.09-.29-2.21-1.11a11.85,11.85,0,0,0-10.94-2s-2.86.77-3.64-3.42-.35-8-6.38-6.85-9.43-3.84-9.64-5.7,1.28-8.77-.47-10.07-4.08-6.82-4.08-6.82-2.43-1.31,4.5-3.52c0,0,5.19-2.79,5.91-4.19,0,0,1.39-2.27,9.13,8.65a12.27,12.27,0,0,0,4.67.05s1-1.88,6-4.91c0,0,2.59-.28.89-5.19,0,0-.58-12.55,9.4-8.93,0,0,8.87-2.66,7.07,9.28,0,0-1.85,6,3.24,1.36,0,0,5.69-2,4.11,5.15,0,0-3.08,6.35-3.45,7.72,0,0,1.69.29,2.91-1.93a5.65,5.65,0,0,0,.75-3.93s.09-5.4,6.26-3.78c0,0,2.07,1.82,6.52-2.12,0,0,3.52-1.56,6.19,2.31,0,0,9.7,1.54-2.51,13.5,0,0-1.17,1.79,1.7,5.5,0,0,2.93,3.91-10.86,6.36,0,0-3.91,1.63-1.33,4.11,0,0,9.75,2.36-6.88,5.78,0,0-8.2.8-9.08,4.56l-2.73.17s-1,2.44-.53,2.82S109.9,154.4,109.9,154.4Z" transform="translate(-68.37 -95.33)"/><path class="g" d="M101.84,148.32c-9.87,2.45-17,9.1-17,16.93,0,6.41,4.76,12,11.92,15.21h0C109.1,186.17,109.9,192,109.9,192s.5-5.48,12.79-11.19l.14-.07c7.56-3.1,12.73-8.89,12.73-15.52,0-8.13-7.62-15-18.09-17.2" transform="translate(-68.37 -95.33)"/><path class="c" d="M122.13,150.26a10.06,10.06,0,0,1,2.27.85,4.32,4.32,0,0,1,1.91,1.73,2.09,2.09,0,0,1,.18,1.53,2.69,2.69,0,0,1-.87,1.25,7.4,7.4,0,0,1-2.31,1.23,34.22,34.22,0,0,1-9.61,1.4,40.46,40.46,0,0,1-9.62-.76A20.38,20.38,0,0,1,99.43,156a7.33,7.33,0,0,1-2.05-1.44A5,5,0,0,1,97,154a1.55,1.55,0,0,1-.2-.63,1.59,1.59,0,0,1,.34-1.17,1.54,1.54,0,0,0,.61,1.93,7.15,7.15,0,0,0,2,.93,26.5,26.5,0,0,0,4.53.89,64.3,64.3,0,0,0,9.32.29c1.56,0,3.12-.1,4.67-.23a29.08,29.08,0,0,0,4.53-.66c1.39-.37,3-1,2.57-2.14a3.86,3.86,0,0,0-1.33-1.65A12.87,12.87,0,0,0,122.13,150.26Z" transform="translate(-68.37 -95.33)"/><path class="c" d="M110.23,100.67c-.61,4.41-1.13,8.83-1.52,13.26s-.73,8.85-.9,13.28-.18,8.85,0,13.27a93.85,93.85,0,0,0,1.51,13.09L109,153a2.54,2.54,0,0,0,.47.28,1.68,1.68,0,0,0,.47.13.68.68,0,0,0,.62-.27l-.22.71c-.3-3.24-.49-6.47-.7-9.71s-.31-6.48-.42-9.72-.12-6.49,0-9.73a75,75,0,0,1,.72-9.71c-.15,3.24-.07,6.47.09,9.7s.34,6.45.59,9.67q.7,9.67,1.66,19.32l0,.42-.26.29a2.94,2.94,0,0,1-1,.76,2.55,2.55,0,0,1-1.26.21,3.42,3.42,0,0,1-1.1-.28,4.73,4.73,0,0,1-.93-.55l-.26-.21-.07-.35a82.11,82.11,0,0,1-1.54-13.42c-.17-4.49,0-9,.28-13.43s.84-8.91,1.51-13.32c.33-2.21.73-4.41,1.15-6.6S109.68,102.83,110.23,100.67Z" transform="translate(-68.37 -95.33)"/><path class="d" d="M107.76,150.48s-1-4.19-4.75-5c-3.19-.72-4.86-6.13-1.65-8.33,1.64-1.12,1.82-3.1,1.6-4.78a8,8,0,0,0-2.09-4.39,23.51,23.51,0,0,0-4-3.45c-2.82-2.21-5.59-8.13-.48-11.07,4.92-2.84,4.91-4.12,4.24-6-1.43-3.88,1.43-14.1,9.23-10.33,0,0,9.54-2.92,6.79,11,0,0-.58,3.35,2.79.2a3.22,3.22,0,0,1,5.38,2.78c-.24,1.7-1.57,4-3.31,8-2.12,4.86-4,9-4,9s-1.48,3.17,1.55,2.65c3.76-.22,2.1,11-3.29,15.18-4.89,3.95-4.6,7.2-4.6,7.2" transform="translate(-68.37 -95.33)"/><path class="c" d="M100.5,143.5c-1.64-1.79-3.14-3.65-4.63-5.53s-2.91-3.77-4.36-5.66-2.86-3.8-4.25-5.73-2.8-3.87-4.11-5.92a45,45,0,0,1,5.31,4.92,70,70,0,0,1,4.64,5.53c1.44,1.93,2.81,3.91,4.05,6A50.12,50.12,0,0,1,100.5,143.5Z" transform="translate(-68.37 -95.33)"/><path class="c" d="M107.82,150.84a1.24,1.24,0,0,1-.55,1.13,1.81,1.81,0,0,1-1.42.24,3.24,3.24,0,0,1-1.91-1.31l-.13-.19h0c-.47-1-1-1.94-1.39-3a27.58,27.58,0,0,1-1.19-3.12,22,22,0,0,1,2.28,2.46,29,29,0,0,1,1.94,2.71l-.14-.19c.46.34.85.68,1.15.93a2.61,2.61,0,0,0,.45.33A1.53,1.53,0,0,0,107.82,150.84Z" transform="translate(-68.37 -95.33)"/><path class="d" d="M93.89,116.25a4.66,4.66,0,0,0-3.28.44s-1.53,1.21-6.51-6.38c-2.24-3.4-4-3.25-5.19-2a18.31,18.31,0,0,1-7.63,4.38c-1.6.49-2.6,1.65-1.35,4.11l.18.35c1.11,2.15,4.25,5.19,4.32,7.61.1,3.17-2.94,7.38,2.73,11.85,3.46,2.73,6,.69,9.89,1.07,0,0,2.4.15,2.94,7.64,0,0-.54,3.72,6,2.33,3.81-.81,8.11,1.79,8.11,1.79" transform="translate(-68.37 -95.33)"/><path class="d" d="M119,124.87a13.43,13.43,0,0,1,3.74-4.81c1.39-1,1.74-3.44,1.79-5.26a4.33,4.33,0,0,1,5.76-4l.13,0c2.25.86,3.5.74,4.18.14,0,0,5.14-6.12,8.9.19,0,0,9.86,2.14-1.43,11.81a4.4,4.4,0,0,0-1.18,2,2.53,2.53,0,0,0,.57,3c1.85,1.41,1.66,5.17-.19,5.87s-11.07,1.9-11.48,4.73c-.31,2.08,1.94,2.92,1.94,2.92s3.68,1.35-.86,3.27c-3.43,1.44-11.39,1.77-15.45,4.22" transform="translate(-68.37 -95.33)"/><path class="d" d="M134,148.08" transform="translate(-68.37 -95.33)"/><path class="c" d="M111.81,150.7a3.24,3.24,0,0,0,.8-.19l.57-.2a3.16,3.16,0,0,1,.53-.13c.18-.06.38,0,.58-.09l-.65.58a76.26,76.26,0,0,1,4.64-8.94c1.74-2.86,3.59-5.63,5.59-8.3s4.1-5.26,6.37-7.69,4.63-4.77,7.07-7c-1.1,1.25-2.22,2.46-3.3,3.71s-2.16,2.51-3.17,3.82c-2.08,2.56-4,5.23-5.89,7.94s-3.59,5.52-5.2,8.38a74.33,74.33,0,0,0-4.32,8.78,1,1,0,0,1-.65.58,2.8,2.8,0,0,1-.82.19,2.27,2.27,0,0,1-.89-.08,2,2,0,0,1-.83-.46A1.23,1.23,0,0,1,111.81,150.7Z" transform="translate(-68.37 -95.33)"/><ellipse class="c" cx="35.06" cy="72.98" rx="2.07" ry="4.87"/><ellipse class="c" cx="53.18" cy="72.98" rx="2.07" ry="4.87"/><path class="a" d="M91,178.06s4-8.43,8,0c0,0,1.89-5.57,5.86-3l2.26,2.66,1.72-2.4,1.89-.47,1.29-.2a3.41,3.41,0,0,1,2.92,3s1.6-4.58,5.06-2.86a3.68,3.68,0,0,1,2.83,3.26s.73-4.5,4.74-3.16c0,0,2.62-.74,3.24,3.54,0,0,.36-4.27,4.59-3.81,0,0,2-.18,3.38,3.81,0,0,1.56-4.12,3.67-3.8l-5.18,58-45.82.58-8.47-53.72,1.48-3.92,2.68-1.11L89,175l1.09.92Z" transform="translate(-68.37 -95.33)"/><path class="b" d="M91.39,233.23l7.23-.3-6.18-57.24a2.41,2.41,0,0,0-1.26,1.56c-5.17-6.91-7.73.88-7.73.88Z" transform="translate(-68.37 -95.33)"/><path class="b" d="M105,233.09l7.75.11-2-58.37a4.6,4.6,0,0,0-3.61,1.89c-3-3.19-5.67-1.9-5.67-1.9Z" transform="translate(-68.37 -95.33)"/><path class="b" d="M119.58,233.33l7.4.14,2.21-58.13c-2.32-.13-2.59-2.28-6.25,1.59-.67.71-2-2.07-3-2.13Z" transform="translate(-68.37 -95.33)"/><path class="b" d="M133.5,233.25l7.3.49,5.81-54.51s.74-4.44-4.92-4.64c-1.05,0-2.23,2-2.69,2.14-.81.22-1.11-1.36-1.54-1.09Z" transform="translate(-68.37 -95.33)"/><polygon class="a" points="76.86 95.15 16.47 95.1 20.27 118.83 74.02 118.83 76.86 95.15"/><path class="a" d="M141.85,218.69s3.33-1.5,4.47.53c0,0,3.65-.89,1.24,3.7l1.67,1.87,1.14.19.72,1.11.34.34,1.12-.81,1.32-.41,1.59.54,2,.07,1.45,1.55.23,1.1,1.25.89.21,1.24,1.52-.18,1.51-.18,2.07-.24,1.57,1.23.91,1.59-.52,1.11-.7.69-.95.8-2.94-.35-1.34-.08-.81-.61-.57-.8-.52-1-.43-.5-1.18.77-2.89.09-.83.14-.34,1.2-1.41.44-1.75-.54-1.87.28-1.49.72-1.57.08L144.7,235l-.21,1.14-1.05.6-1.42-.52-.65-.46-.9.76-1.15.47-1.48-.64-1.05-.4-1.15-.14-1.35-1.66.17-1.68.57-.86,1.33-.35,2-2.65.79-.56,1,.19.6,0Z" transform="translate(-68.37 -95.33)"/><path class="a" d="M85.27,224.83s-3.13-4.47-4.6.21c0,0-2.15.48-.4,2.68,0,0-3.86,5.45,3.63,4.65,0,0,5.08.16,4.36-3.49S88.51,223.75,85.27,224.83Z" transform="translate(-68.37 -95.33)"/><path class="d" d="M142.39,224.61s2,0,2.1,2.76" transform="translate(-68.37 -95.33)"/><path class="d" d="M142.7,230.74c-.41.23-.93-1.43-.93-1.43s-1.36-2.12-3-1.13-1.26,3.69-3.25,3.32-1.22,5.74,1.66,4.25c0,0,2.58,3.05,4-.53,0,0,1.89,3.35,3.25.2S144.82,229.54,142.7,230.74Z" transform="translate(-68.37 -95.33)"/><path class="d" d="M138.55,231.83c.27.4,1.11,2.13,3.84,1.4" transform="translate(-68.37 -95.33)"/><path class="d" d="M143.84,230.47s-1.17-3.38,2.28-3.61c0,0,2.25-4.82,5.21-.44,0,0,5.07.1,2.55,3.89,0,0,2.59,6.37-2.89,3.91,0,0-2.42-.3-3.11.76s-3.12-.16-3.12-.16" transform="translate(-68.37 -95.33)"/><path class="d" d="M147.78,230.24s1.06-1.81,3.65-.24" transform="translate(-68.37 -95.33)"/><path class="d" d="M148.54,227.65s1.89,2,1.26,4.18" transform="translate(-68.37 -95.33)"/><path class="d" d="M149.12,224.61s-1.61-3.1-3.73-1.47c0,0-1.24-3.4-4-.47" transform="translate(-68.37 -95.33)"/><path class="d" d="M154.58,232.83s4.28,1.16,4.71-1.16c0,0,3.15-1.86-.37-3.29,0,0,0-3.75-3.18-2.25,0,0-1.57-2.79-4,.33" transform="translate(-68.37 -95.33)"/><path class="d" d="M155.87,227.65s1.79-.16,1.93,2.95" transform="translate(-68.37 -95.33)"/><path class="d" d="M164.17,231.83s-.82-2.07-2.69-1.23-1.66,2-1.66,2-.3.87,1.19,1.2c0,0-.79,1.46,1.86,1.16,0,0,3.25,1.53,4.08-.36,0,0,2.32-.7.83-2.36,0,0-.89-4.08-4.58-1.86" transform="translate(-68.37 -95.33)"/><path class="d" d="M162.71,231.83a3.53,3.53,0,0,0,3-.6" transform="translate(-68.37 -95.33)"/><path class="d" d="M142,218.64s3.5-1.27,4.3.58c0,0,4-.54,1.24,3.7" transform="translate(-68.37 -95.33)"/><path class="d" d="M80.35,227.61s-1.7-1.85.44-2.62c0,0,.4-5,4.48-.16,0,0,2.9-1.78,2.82,3.31,0,0,1.41,4.64-3.79,4.19C84.3,232.33,76,233.3,80.35,227.61Z" transform="translate(-68.37 -95.33)"/><path class="d" d="M82.48,227.56s2.83-.55,3.43,1.79" transform="translate(-68.37 -95.33)"/><path class="d" d="M140.71,228.17l5.82-48.45a4.62,4.62,0,0,0,.12-1" transform="translate(-68.37 -95.33)"/><path class="d" d="M146.65,178.73a4,4,0,1,0-8,0,4,4,0,1,0-7.94,0,4,4,0,1,0-7.94,0,4,4,0,1,0-7.94,0,4,4,0,1,0-7.95,0,4,4,0,1,0-7.94,0,4,4,0,1,0-7.94,0,4,4,0,1,0-8,0" transform="translate(-68.37 -95.33)"/><path class="d" d="M83.1,178.73a4.37,4.37,0,0,0,.19,1.21l8.1,53.29h43.07" transform="translate(-68.37 -95.33)"/><line class="d" x1="16.52" y1="95.15" x2="76.86" y2="95.15"/><line class="d" x1="74.02" y1="118.83" x2="20.12" y2="118.83"/></svg>