<svg xmlns="http://www.w3.org/2000/svg" viewBox="0 0 100.91 152.63"><defs><style>.a{fill:#eae7d1;}.b{fill:#68579e;}.c,.i{fill:#443f35;}.d,.e,.h{fill:none;stroke:#443f35;stroke-width:2px;}.d{stroke-linecap:round;}.d,.e{stroke-linejoin:round;}.f{fill:#a89bcb;}.g{fill:#abbe85;}.h{stroke-miterlimit:10;}.i{font-size:25px;font-family:ArialRoundedMTBold, Arial Rounded MT Bold;}</style></defs><path class="a" d="M79.63,150.44s.31-6.39-1.24-6.51c0,0-1.47-1.58-2.52,2.47,0,0,.86-4.69-1.45-5.51a1.94,1.94,0,0,0-2,1.83s.41-4.23-.71-4.54c0,0-1.72-1.46-2.21,1.48,0,0-.26-5.7-2.47-3.64l12.57,58.6a9.28,9.28,0,0,1,2.34,1.92s2.57-1.94,3,4.05l2.59,3.74L85,185.57Z" transform="translate(-65 -57.04)"/><path class="b" d="M70.16,138,83.5,200.14l-2-2.95L67.77,136s.43-1.63,1.61,1.11S70.16,138,70.16,138Z" transform="translate(-65 -57.04)"/><path class="b" d="M75.87,145.77,86.08,203l-1.75-1.25L72.49,141.24a1.64,1.64,0,0,1,1.93-.35S76,140.56,75.87,145.77Z" transform="translate(-65 -57.04)"/><polygon class="c" points="77.83 89.3 76.86 86.6 76.05 85.47 75.4 85.21 73.63 85.88 72.34 83.64 71.08 82.9 69.77 83.85 69.16 81.23 67.63 80.78 67.19 79.92 17.16 79.92 17.14 79.86 14.73 77.11 12.23 76.65 10.33 77.46 9.27 78.98 7.5 77.15 4.59 76.71 2.77 77.68 3.34 78.53 5.17 80.99 6.44 80.99 7.5 81.95 7.5 84.2 9.42 83.85 10.8 85.1 11.35 87.45 12.23 86.6 13.72 87.45 14.55 88.65 14.75 91.27 16.52 89.85 17.25 89.61 17.54 93.4 59.97 92.42 61.68 91.43 62.28 92.42 63.08 91.27 65.13 89.43 66.97 89.15 68.94 90.17 70.56 91.98 71.7 90.32 73.64 89.3 74.81 89.3 76.44 89.63 77.99 90.99 77.83 89.3"/><polygon class="a" points="10.64 75.33 5.4 75.66 3.93 79.32 5.17 80.99 6.98 80.17 7.5 81.95 8.29 83.33 10.64 84.23 11.05 86.37 14.75 87.86 15.1 89.41 16.52 88.72 18.06 86.84 10.64 75.33"/><polygon class="a" points="16.52 105.15 5.4 94.91 10.26 118.12 19.96 128.53 16.52 105.15"/><path class="d" d="M-40.54,60.39" transform="translate(-65 -57.04)"/><path class="d" d="M-40.54,60.39" transform="translate(-65 -57.04)"/><line class="d" x1="10.05" y1="117.17" x2="20.12" y2="128.83"/><line class="d" x1="5.08" y1="94.62" x2="16.52" y2="105.15"/><line class="d" x1="19.78" y1="144.19" x2="23.02" y2="147.9"/><line class="d" x1="1.82" y1="79.86" x2="14.55" y2="137.58"/><path class="d" d="M81.81,135.49a2.92,2.92,0,0,0-.36,1.4,3.69,3.69,0,0,0-7.32,0,3.68,3.68,0,0,0-7.31,0" transform="translate(-65 -57.04)"/><path class="d" d="M66.82,136.9c.06-.83.28-1.86,1.29-1.37,1.69.81,1.68,2.49,1.68,4.14.08-.86.2-2.23,1.46-1.71,2,.82,1.57,3.4,1.49,4.77.09-.92.18-2.36,1.58-1.88,2.54.87,1.53,3.69,1.55,5.55h0c.09-1,.53-3.29,2-2.73,2.52,1,1.74,4.77,1.74,6.77" transform="translate(-65 -57.04)"/><path class="d" d="M131.09,137.13a16.07,16.07,0,0,1,.37,2.35c0-.87.22-2.27,1.54-1.94,2.13.53,1.68,3.2,1.79,4.56,0-.92.21-2.4,1.66-2.13,2.64.49,2.05,3.43,2.34,5.26h0c0-1,.06-3.33,1.6-3,2.64.58,2.41,4.79,2.7,6.77" transform="translate(-65 -57.04)"/><path class="a" d="M143.68,151.18l-.84.14-.34,1.2-1.4.44-1.75-.54-1.88.28-1.49.72-1.57.08-1.36-.33-.2,1.14-1,.6-1.42-.52-.66-.46-.9.76-1.15.47-1.47-.64-1.06-.4L124,154l-1.35-1.66.17-1.68.58-.86,1.32-.35,2-2.65.79-.56,1,.19-5.92-2.89,3.29-4.73s7.71-3.4,8.85-1.37c0,0,3.65-.89,1.24,3.7l1.68,1.87,1.14.19.71,1.11.34.34,1.12-.81" transform="translate(-65 -57.04)"/><line class="a" x1="84.27" y1="95.55" x2="83.7" y2="94.74"/><path class="e" d="M132.85,145.57c-.07-2.71-2.11-2.76-2.11-2.76s-4.21-2.47-3.83,2.09" transform="translate(-65 -57.04)"/><path class="e" d="M131.05,148.94c-.41.23-.93-1.43-.93-1.43s-1.36-2.12-3-1.13-1.26,3.69-3.25,3.32-1.22,5.74,1.66,4.25c0,0,2.59,3.05,4-.53,0,0,1.89,3.35,3.25.2S133.18,147.74,131.05,148.94Z" transform="translate(-65 -57.04)"/><path class="e" d="M126.91,150c.26.4,1.1,2.13,3.83,1.4" transform="translate(-65 -57.04)"/><path class="e" d="M132.19,148.67s-1.17-3.38,2.28-3.61c0,0,2.26-4.82,5.21-.44,0,0,5.07.1,2.55,3.89,0,0,2.59,6.37-2.88,3.91,0,0-2.42-.3-3.12.76s-3.12-.16-3.12-.16" transform="translate(-65 -57.04)"/><path class="e" d="M136.13,148.44s1.06-1.81,3.65-.24" transform="translate(-65 -57.04)"/><path class="e" d="M136.89,145.85s1.89,2,1.26,4.18" transform="translate(-65 -57.04)"/><path class="e" d="M142.94,151" transform="translate(-65 -57.04)"/><path class="e" d="M144.22,145.85" transform="translate(-65 -57.04)"/><path class="e" d="M135.91,141.12c2.72-4.24-1.24-3.7-1.24-3.7-.8-1.85-4.29-.58-4.29-.58s-2.3-.54-2.3,1.46c0,.73.77,1.33,1.73,1.81a18.37,18.37,0,0,0,3.93,1.23c2.12-1.63,3.73,1.47,3.73,1.47" transform="translate(-65 -57.04)"/><path class="a" d="M105.63,109s-20.39.06-24.11,16.13a15.4,15.4,0,0,0,3,10.4c1.37,1.74,47.71-7.9,47.71-7.9s2.43-7.31-9.54-14.71C122.65,112.94,113.83,108.46,105.63,109Z" transform="translate(-65 -57.04)"/><path class="f" d="M106.53,154.62s-.53-7.15-13-11.92c0,0-9.93-6.25-10.44-9.5s3.29-2.11,3.29-2.11,2.4,2.47,4.93,2.2,4.83.07,4.84-5.06c0-2.88,2.63-5.62,3.9-4.73s1.57,2.4,1.57,4.15c0,4.83,3.11,3.1,4,1.88s.37-4.13,3.41-4.38,3,3.16,3,3.16a2.57,2.57,0,0,0,4.07.12c2.16-2.27,6.3-.78,6.3-.78s3.32.78,4.21-.86,0-6.79,4-6.05c0,0,4.16,6.4-2.17,15.37-3.21,4.56-9.54,6.2-9.54,6.2S107.43,148.93,106.53,154.62Z" transform="translate(-65 -57.04)"/><path class="g" d="M106.53,116.11l-1.38-.63-.71-2.29-1.08-.29-2.21-1.11a11.85,11.85,0,0,0-11-2s-2.85.76-3.64-3.43-.34-8-6.37-6.85-9.43-3.84-9.64-5.7,1.28-8.76-.48-10.06S66,76.9,66,76.9s-2.43-1.31,4.5-3.52c0,0,5.19-2.79,5.9-4.19,0,0,1.4-2.27,9.14,8.66a12.35,12.35,0,0,0,4.66,0s1-1.88,6-4.91c0,0,2.59-.27.9-5.18,0,0-.59-12.56,9.4-8.94,0,0,8.86-2.66,7.07,9.28,0,0-1.86,6,3.24,1.36,0,0,5.69-2,4.11,5.15,0,0-3.09,6.35-3.46,7.73,0,0,1.69.28,2.91-1.94a5.65,5.65,0,0,0,.75-3.93s.09-5.39,6.27-3.78c0,0,2.06,1.82,6.52-2.12,0,0,3.52-1.56,6.19,2.31,0,0,9.69,1.55-2.52,13.51,0,0-1.17,1.79,1.7,5.49,0,0,2.93,3.91-10.86,6.36,0,0-3.91,1.64-1.32,4.11,0,0,9.75,2.36-6.88,5.78,0,0-8.21.8-9.09,4.56l-2.73.17s-1,2.44-.53,2.82S106.53,116.11,106.53,116.11Z" transform="translate(-65 -57.04)"/><path class="h" d="M98.46,110c-9.87,2.45-16.94,9.1-16.94,16.93,0,6.41,4.76,12,11.91,15.21h0c12.3,5.71,13.1,11.57,13.1,11.57s.5-5.47,12.79-11.19l.13-.07c7.56-3.1,12.74-8.89,12.74-15.52,0-8.13-7.63-15-18.09-17.19" transform="translate(-65 -57.04)"/><path class="c" d="M118.76,112a10,10,0,0,1,2.26.85,4.4,4.4,0,0,1,1.92,1.73,2,2,0,0,1,.17,1.53,2.76,2.76,0,0,1-.86,1.26,7.63,7.63,0,0,1-2.32,1.22,34.1,34.1,0,0,1-9.6,1.4,41.1,41.1,0,0,1-9.63-.75,21,21,0,0,1-4.64-1.52,7.05,7.05,0,0,1-2-1.44,5.08,5.08,0,0,1-.38-.53,1.72,1.72,0,0,1-.2-.63,1.6,1.6,0,0,1,.35-1.17,1.53,1.53,0,0,0,.61,1.93,7.15,7.15,0,0,0,2,.93,26.31,26.31,0,0,0,4.53.89,65.61,65.61,0,0,0,9.31.3c1.57,0,3.13-.11,4.67-.24a29.21,29.21,0,0,0,4.54-.66c1.38-.37,3-1,2.56-2.14a3.9,3.9,0,0,0-1.32-1.65A14.86,14.86,0,0,0,118.76,112Z" transform="translate(-65 -57.04)"/><path class="c" d="M106.85,62.38c-.6,4.41-1.13,8.83-1.51,13.26s-.74,8.85-.9,13.28-.18,8.86,0,13.27A93.86,93.86,0,0,0,106,115.28l-.34-.55a3.27,3.27,0,0,0,.47.27,1.34,1.34,0,0,0,.47.13.67.67,0,0,0,.61-.27l-.22.71c-.29-3.23-.49-6.47-.69-9.7s-.32-6.48-.42-9.73-.13-6.49,0-9.73a75.14,75.14,0,0,1,.73-9.71c-.15,3.24-.07,6.47.08,9.7s.34,6.45.6,9.68c.46,6.44,1,12.89,1.65,19.31l0,.43-.27.28a2.9,2.9,0,0,1-1,.76,2.58,2.58,0,0,1-1.27.21,3.36,3.36,0,0,1-1.09-.28,4.28,4.28,0,0,1-.93-.55l-.27-.21-.07-.35a83.23,83.23,0,0,1-1.54-13.41c-.16-4.49,0-9,.29-13.44s.84-8.91,1.51-13.32c.32-2.21.73-4.4,1.15-6.59S106.31,64.54,106.85,62.38Z" transform="translate(-65 -57.04)"/><path class="e" d="M104.39,112.2s-1-4.2-4.75-5c-3.19-.72-4.86-6.13-1.65-8.33,1.64-1.12,1.82-3.1,1.6-4.77a8,8,0,0,0-2.09-4.4,24.39,24.39,0,0,0-4-3.45C90.72,84,88,78.08,93.05,75.14,98,72.3,98,71,97.29,69.2c-1.42-3.88,1.44-14.11,9.24-10.34,0,0,9.54-2.92,6.78,11,0,0-.58,3.35,2.8.2a3.22,3.22,0,0,1,5.38,2.78c-.24,1.7-1.57,4-3.31,8-2.12,4.87-4,9-4,9s-1.47,3.17,1.56,2.65c3.76-.21,2.1,11-3.29,15.19-4.89,3.94-4.61,7.19-4.61,7.19" transform="translate(-65 -57.04)"/><path class="c" d="M97.13,105.21c-1.65-1.79-3.15-3.65-4.63-5.53S89.58,95.91,88.13,94s-2.85-3.81-4.25-5.74-2.8-3.87-4.11-5.91a44.23,44.23,0,0,1,5.32,4.91c1.65,1.76,3.17,3.62,4.64,5.53s2.81,3.91,4,6A49.34,49.34,0,0,1,97.13,105.21Z" transform="translate(-65 -57.04)"/><path class="c" d="M104.44,112.55a1.2,1.2,0,0,1-.55,1.13,1.81,1.81,0,0,1-1.42.24,3.28,3.28,0,0,1-1.9-1.3l-.14-.19h0c-.48-1-1-2-1.4-3a28.46,28.46,0,0,1-1.18-3.13,22,22,0,0,1,2.28,2.46,28.88,28.88,0,0,1,1.93,2.71l-.14-.19c.47.34.86.68,1.16.93a1.94,1.94,0,0,0,.45.33A1.5,1.5,0,0,0,104.44,112.55Z" transform="translate(-65 -57.04)"/><path class="e" d="M90.52,78a4.72,4.72,0,0,0-3.29.43S85.7,79.61,80.73,72c-2.24-3.41-4-3.26-5.19-2.06a18.5,18.5,0,0,1-7.63,4.39c-1.6.48-2.6,1.65-1.35,4.11l.18.34C67.85,81,71,84,71.06,86.43c.1,3.17-2.94,7.38,2.73,11.85,3.46,2.73,6,.68,9.89,1.06,0,0,2.39.15,2.94,7.64,0,0-.55,3.73,6,2.34,3.82-.81,8.12,1.78,8.12,1.78" transform="translate(-65 -57.04)"/><path class="e" d="M115.62,86.58a13.51,13.51,0,0,1,3.75-4.81c1.39-1,1.73-3.43,1.78-5.26a4.33,4.33,0,0,1,5.77-4l.13,0c2.25.85,3.5.73,4.18.13,0,0,5.13-6.11,8.9.19,0,0,9.86,2.15-1.43,11.81a4.23,4.23,0,0,0-1.18,2,2.52,2.52,0,0,0,.57,3c1.85,1.41,1.66,5.17-.19,5.88s-11.07,1.89-11.49,4.72c-.3,2.08,1.94,2.93,1.94,2.93s3.68,1.34-.85,3.26c-3.43,1.44-11.39,1.77-15.46,4.23" transform="translate(-65 -57.04)"/><path class="e" d="M130.62,109.79" transform="translate(-65 -57.04)"/><path class="c" d="M108.43,112.41a3.69,3.69,0,0,0,.8-.18c.21-.08.39-.15.57-.2a2.69,2.69,0,0,1,.54-.14,5.21,5.21,0,0,1,.57-.08l-.64.57a76.32,76.32,0,0,1,4.64-8.94c1.73-2.85,3.58-5.63,5.58-8.3s4.1-5.26,6.38-7.69,4.62-4.77,7.07-7c-1.1,1.25-2.23,2.46-3.31,3.71s-2.15,2.51-3.16,3.82c-2.09,2.56-4,5.23-5.89,7.94s-3.6,5.52-5.21,8.38a76.88,76.88,0,0,0-4.32,8.79,1,1,0,0,1-.64.57,2.88,2.88,0,0,1-.83.2,2.48,2.48,0,0,1-.89-.09,2,2,0,0,1-.82-.46A1.22,1.22,0,0,1,108.43,112.41Z" transform="translate(-65 -57.04)"/><ellipse class="c" cx="35.06" cy="73.98" rx="2.07" ry="4.87"/><ellipse class="c" cx="53.18" cy="73.98" rx="2.07" ry="4.87"/><path class="a" d="M73.7,131.71s3.45-1.17,4.39,1c0,0,3.72-.55.89,3.8l1.5,2,1.11.3L82.2,140l.3.36,1.2-.7,1.35-.28,1.54.68,2,.26L89.85,142l.13,1.12,1.16,1,.09,1.26,1.54,0,1.51,0,2.09,0,1.45,1.37.75,1.67L98,149.31l-.76.62-1,.71L93.28,150l-1.34-.2-.74-.68-.5-.85-.42-1-.38-.53-1.25.65-2.88-.18-.84.06-.45,1.17-1.45.3-1.69-.7" transform="translate(-65 -57.04)"/><path class="e" d="M78.09,148.5" transform="translate(-65 -57.04)"/><path class="e" d="M77.1,140.25s2.7-4.58,5.23.06c0,0,5,.57,2.18,4.1" transform="translate(-65 -57.04)"/><path class="e" d="M78.44,143.77s1.22-1.7,3.65.11" transform="translate(-65 -57.04)"/><path class="e" d="M79.44,141.27s1.7,2.12.86,4.28" transform="translate(-65 -57.04)"/><path class="e" d="M80.3,138.3s-1.31-3.24-3.57-1.82" transform="translate(-65 -57.04)"/><path class="e" d="M85,147s4.15,1.56,4.79-.72c0,0,3.32-1.55-.05-3.3,0,0,.39-3.73-3-2.55,0,0-1.3-2.92-4,0" transform="translate(-65 -57.04)"/><path class="e" d="M86.74,142s1.8,0,1.64,3.12" transform="translate(-65 -57.04)"/><path class="e" d="M94.6,146.9S94,144.76,92,145.42s-1.84,1.85-1.84,1.85-.38.84,1.08,1.31c0,0-.93,1.38,1.74,1.33,0,0,3.09,1.83,4.1,0,0,0,2.37-.47,1-2.26,0,0-.5-4.16-4.38-2.29" transform="translate(-65 -57.04)"/><path class="e" d="M93.15,146.76a3.6,3.6,0,0,0,3-.31" transform="translate(-65 -57.04)"/><path class="e" d="M70.07,136.12c-2.42-5.12,3.73-4.44,3.73-4.44s3.6-.94,4.22,1c0,0,4-.17.89,3.8" transform="translate(-65 -57.04)"/><path class="a" d="M87.62,149.77s4-8.43,7.94,0c0,0,1.9-5.57,5.87-3l2.25,2.66,1.73-2.4,1.89-.47,1.28-.2a3.4,3.4,0,0,1,2.92,3s1.61-4.58,5.07-2.86a3.67,3.67,0,0,1,2.82,3.26s.74-4.5,4.75-3.16c0,0,2.61-.73,3.23,3.54,0,0,.37-4.27,4.59-3.81,0,0,2-.18,3.38,3.81,0,0,1.56-4.11,3.68-3.8l-5.19,58L88,204.94l-8.46-53.72L81,147.3l2.67-1.11,1.93.56,1.08.92Z" transform="translate(-65 -57.04)"/><path class="b" d="M88,204.94l7.24-.3-6.18-57.23A2.38,2.38,0,0,0,87.81,149c-5.18-6.91-7.73.88-7.73.88Z" transform="translate(-65 -57.04)"/><path class="b" d="M101.6,204.8l7.75.11-2-58.37a4.66,4.66,0,0,0-3.62,1.89c-3-3.19-5.67-1.89-5.67-1.89Z" transform="translate(-65 -57.04)"/><path class="b" d="M116.2,205l7.4.15,2.22-58.13c-2.32-.14-2.6-2.28-6.25,1.58-.67.71-2-2.07-3-2.13Z" transform="translate(-65 -57.04)"/><path class="b" d="M130.13,205l7.3.49,5.81-54.51s.74-4.44-4.93-4.64c-1,0-2.23,2-2.68,2.14-.81.22-1.11-1.35-1.55-1.09Q132.12,176.15,130.13,205Z" transform="translate(-65 -57.04)"/><polygon class="a" points="76.86 105.15 16.47 105.1 20.27 128.83 74.02 128.83 76.86 105.15"/><path class="a" d="M138.47,190.4s3.33-1.5,4.47.54c0,0,3.65-.89,1.25,3.7l1.67,1.86,1.14.19.72,1.12.33.33,1.12-.81,1.32-.41,1.6.54,2,.07,1.45,1.55.23,1.1,1.26.89.2,1.25,1.53-.19,1.5-.18,2.08-.24,1.57,1.24.9,1.58-.52,1.11-.69.69-1,.8-2.93-.35-1.35-.08-.8-.6-.58-.81-.51-1-.43-.5-1.18.77-2.89.1-.83.13-.34,1.2-1.41.44-1.75-.54-1.88.28-1.48.72-1.58.08-1.36-.32-.2,1.14-1.05.6-1.42-.53-.66-.46-.89.76-1.16.47-1.47-.63-1.06-.41-1.14-.14-1.36-1.66.17-1.68.58-.85L133,203l2-2.66.8-.56,1,.19.6,0Z" transform="translate(-65 -57.04)"/><path class="a" d="M81.89,196.54s-3.12-4.47-4.6.21c0,0-2.15.48-.39,2.68,0,0-3.87,5.45,3.62,4.65,0,0,5.08.16,4.37-3.49S85.14,195.46,81.89,196.54Z" transform="translate(-65 -57.04)"/><path class="e" d="M139,196.32s2,.05,2.1,2.76" transform="translate(-65 -57.04)"/><path class="e" d="M139.33,202.45c-.42.23-.93-1.43-.93-1.43s-1.36-2.12-3-1.13-1.26,3.69-3.25,3.32-1.21,5.74,1.66,4.25c0,0,2.59,3,4.05-.53,0,0,1.89,3.35,3.25.2S141.45,201.25,139.33,202.45Z" transform="translate(-65 -57.04)"/><path class="e" d="M135.18,203.54c.26.4,1.1,2.13,3.84,1.4" transform="translate(-65 -57.04)"/><path class="e" d="M140.47,202.18s-1.18-3.38,2.27-3.61c0,0,2.26-4.81,5.21-.43,0,0,5.08.1,2.56,3.88,0,0,2.58,6.37-2.89,3.91,0,0-2.42-.3-3.12.77s-3.12-.17-3.12-.17" transform="translate(-65 -57.04)"/><path class="e" d="M144.4,202s1.06-1.81,3.65-.24" transform="translate(-65 -57.04)"/><path class="e" d="M145.16,199.36s1.9,2,1.27,4.18" transform="translate(-65 -57.04)"/><path class="e" d="M145.74,196.32s-1.6-3.09-3.73-1.47c0,0-1.23-3.4-4-.47" transform="translate(-65 -57.04)"/><path class="e" d="M151.21,204.54s4.27,1.16,4.7-1.16c0,0,3.16-1.86-.36-3.29,0,0,0-3.75-3.19-2.25,0,0-1.56-2.79-4,.33" transform="translate(-65 -57.04)"/><path class="e" d="M152.5,199.36s1.79-.16,1.92,3" transform="translate(-65 -57.04)"/><path class="e" d="M160.79,203.54s-.81-2.07-2.69-1.22-1.65,2-1.65,2-.3.87,1.19,1.2c0,0-.8,1.46,1.86,1.17,0,0,3.25,1.52,4.08-.37,0,0,2.32-.7.83-2.35,0,0-.9-4.09-4.58-1.87" transform="translate(-65 -57.04)"/><path class="e" d="M159.33,203.54a3.57,3.57,0,0,0,3-.59" transform="translate(-65 -57.04)"/><path class="e" d="M138.65,190.35s3.5-1.27,4.29.59c0,0,4-.55,1.25,3.7" transform="translate(-65 -57.04)"/><path class="e" d="M77,199.33s-1.69-1.86.45-2.63c0,0,.4-5,4.47-.16,0,0,2.91-1.78,2.82,3.31,0,0,1.42,4.64-3.79,4.19C80.92,204,72.66,205,77,199.33Z" transform="translate(-65 -57.04)"/><path class="e" d="M79.11,199.27s2.82-.55,3.43,1.79" transform="translate(-65 -57.04)"/><path class="e" d="M137.33,199.89l5.82-48.46a4.62,4.62,0,0,0,.12-1" transform="translate(-65 -57.04)"/><path class="e" d="M143.27,150.44a4,4,0,1,0-7.94,0,4,4,0,1,0-7.94,0,4,4,0,1,0-8,0,4,4,0,1,0-7.94,0,4,4,0,1,0-7.94,0,4,4,0,1,0-7.94,0,4,4,0,1,0-8,0,4,4,0,1,0-7.94,0" transform="translate(-65 -57.04)"/><path class="e" d="M79.73,150.44a4.93,4.93,0,0,0,.18,1.22L88,204.94h43.07" transform="translate(-65 -57.04)"/><line class="e" x1="16.52" y1="105.15" x2="76.86" y2="105.15"/><line class="e" x1="74.02" y1="128.83" x2="20.12" y2="128.83"/><text class="i" transform="translate(29.49 125.96)">PN</text><path class="a" d="M73.8,131.68" transform="translate(-65 -57.04)"/><path class="e" d="M129.81,140.11s-3.59-2.47-4.8,1.21c0,0-3.1-1.3-2.36,3.58" transform="translate(-65 -57.04)"/></svg>