<svg xmlns="http://www.w3.org/2000/svg" viewBox="0 0 80.12 105.55"><defs><style>.a{fill:#eae7d1;}.b{fill:#a89bcb;}.c{fill:#abbe85;}.d,.f{fill:none;stroke:#443f35;stroke-width:2px;}.d{stroke-miterlimit:10;}.e{fill:#443f35;}.f{stroke-linejoin:round;}</style></defs><path class="a" d="M104.29,149.17s-20.39.06-24.12,16.13a15.46,15.46,0,0,0,3,10.4c1.38,1.75,47.71-7.9,47.71-7.9s2.43-7.3-9.54-14.71C121.3,153.09,112.49,148.61,104.29,149.17Z" transform="translate(-63.65 -97.19)"/><path class="b" d="M105.18,194.77s-.53-7.15-13-11.92c0,0-9.93-6.25-10.43-9.5S85,171.24,85,171.24s2.41,2.48,4.94,2.2,4.83.07,4.83-5.06c0-2.88,2.64-5.61,3.9-4.73s1.57,2.41,1.57,4.15c0,4.83,3.11,3.1,4,1.88s.36-4.13,3.4-4.38,3,3.16,3,3.16a2.56,2.56,0,0,0,4.06.13c2.17-2.28,6.3-.79,6.3-.79s3.33.79,4.22-.86,0-6.79,4-6.05c0,0,4.15,6.4-2.17,15.37-3.21,4.56-9.55,6.21-9.55,6.21S106.09,189.08,105.18,194.77Z" transform="translate(-63.65 -97.19)"/><path class="c" d="M105.18,156.26l-1.37-.63-.71-2.28-1.08-.3-2.22-1.11a11.83,11.83,0,0,0-10.94-2s-2.86.77-3.64-3.43-.34-8-6.38-6.84-9.42-3.85-9.64-5.71,1.28-8.76-.47-10.06-4.08-6.83-4.08-6.83-2.43-1.31,4.5-3.52c0,0,5.19-2.79,5.91-4.18,0,0,1.39-2.27,9.14,8.65a12.09,12.09,0,0,0,4.66,0s1-1.88,6-4.91c0,0,2.59-.27.89-5.18,0,0-.58-12.56,9.4-8.94,0,0,8.87-2.65,7.07,9.28,0,0-1.85,6,3.24,1.36,0,0,5.69-2,4.11,5.15,0,0-3.08,6.35-3.45,7.73,0,0,1.69.28,2.91-1.93a5.68,5.68,0,0,0,.75-3.94s.09-5.39,6.26-3.78c0,0,2.07,1.83,6.53-2.12,0,0,3.52-1.56,6.18,2.32,0,0,9.7,1.54-2.51,13.5,0,0-1.17,1.79,1.7,5.49,0,0,2.93,3.91-10.86,6.37,0,0-3.91,1.63-1.33,4.11,0,0,9.75,2.36-6.88,5.77,0,0-8.2.81-9.08,4.56l-2.73.17s-1,2.45-.53,2.82S105.18,156.26,105.18,156.26Z" transform="translate(-63.65 -97.19)"/><path class="d" d="M97.12,150.18c-9.87,2.45-17,9.11-17,16.93,0,6.42,4.76,12,11.92,15.21h0c12.29,5.72,13.09,11.58,13.09,11.58s.5-5.48,12.79-11.2l.14-.07c7.56-3.1,12.73-8.89,12.73-15.52,0-8.12-7.62-15-18.09-17.19" transform="translate(-63.65 -97.19)"/><path class="e" d="M117.42,152.12a10.68,10.68,0,0,1,2.26.85,4.46,4.46,0,0,1,1.92,1.73,2.16,2.16,0,0,1,.17,1.54,2.72,2.72,0,0,1-.87,1.25,7.37,7.37,0,0,1-2.31,1.22,34.61,34.61,0,0,1-9.61,1.41,41.53,41.53,0,0,1-9.62-.76,20.91,20.91,0,0,1-4.65-1.52,7.31,7.31,0,0,1-2-1.43,4.8,4.8,0,0,1-.38-.54,1.6,1.6,0,0,1,.15-1.8A1.53,1.53,0,0,0,93,156a7.27,7.27,0,0,0,2,.93,25.57,25.57,0,0,0,4.53.89,62.91,62.91,0,0,0,9.32.3c1.56,0,3.12-.11,4.67-.24a30.64,30.64,0,0,0,4.54-.65c1.38-.37,3-1,2.56-2.15a3.9,3.9,0,0,0-1.32-1.65A14.86,14.86,0,0,0,117.42,152.12Z" transform="translate(-63.65 -97.19)"/><path class="e" d="M105.51,102.53c-.61,4.42-1.13,8.83-1.52,13.26s-.73,8.85-.9,13.28-.18,8.86,0,13.27a95.2,95.2,0,0,0,1.51,13.09l-.34-.55a2.32,2.32,0,0,0,.47.27,1.74,1.74,0,0,0,.47.14.69.69,0,0,0,.62-.28l-.22.72c-.3-3.24-.49-6.47-.7-9.71s-.31-6.48-.42-9.72-.12-6.49,0-9.74a76.65,76.65,0,0,1,.72-9.7c-.15,3.23-.07,6.46.09,9.69s.34,6.46.6,9.68c.46,6.44,1,12.89,1.65,19.31l0,.43-.26.29a2.92,2.92,0,0,1-1,.75,2.55,2.55,0,0,1-1.26.21,3.42,3.42,0,0,1-1.1-.28,4.12,4.12,0,0,1-.93-.55l-.26-.2-.07-.35a82.23,82.23,0,0,1-1.54-13.42c-.17-4.49,0-9,.28-13.44s.84-8.9,1.51-13.32c.33-2.2.73-4.4,1.15-6.59S105,104.69,105.51,102.53Z" transform="translate(-63.65 -97.19)"/><path class="f" d="M103,152.35s-1-4.2-4.75-5c-3.19-.72-4.86-6.13-1.65-8.32,1.64-1.13,1.82-3.11,1.61-4.78a8.06,8.06,0,0,0-2.1-4.4,23.51,23.51,0,0,0-4-3.45c-2.82-2.21-5.59-8.13-.48-11.07,4.92-2.83,4.91-4.12,4.24-5.94-1.43-3.88,1.43-14.1,9.23-10.34,0,0,9.55-2.91,6.79,11,0,0-.58,3.35,2.79.2a3.23,3.23,0,0,1,5.39,2.78c-.25,1.71-1.58,4-3.32,8-2.12,4.86-4,9-4,9s-1.48,3.18,1.55,2.65c3.77-.21,2.1,11-3.29,15.19-4.89,3.94-4.6,7.19-4.6,7.19" transform="translate(-63.65 -97.19)"/><path class="e" d="M95.78,145.36c-1.64-1.79-3.14-3.65-4.62-5.52s-2.92-3.77-4.37-5.66-2.86-3.8-4.25-5.74-2.8-3.87-4.11-5.91a44.22,44.22,0,0,1,5.31,4.92A67.89,67.89,0,0,1,88.38,133a71.11,71.11,0,0,1,4.05,6A48.76,48.76,0,0,1,95.78,145.36Z" transform="translate(-63.65 -97.19)"/><path class="e" d="M103.1,152.7a1.23,1.23,0,0,1-.55,1.13,1.81,1.81,0,0,1-1.42.24,3.25,3.25,0,0,1-1.9-1.3l-.14-.19h0c-.48-1-1-2-1.4-3a28.5,28.5,0,0,1-1.19-3.13A20.35,20.35,0,0,1,98.78,149a28.83,28.83,0,0,1,1.94,2.7l-.14-.19c.46.34.85.69,1.15.93a2.18,2.18,0,0,0,.45.33A1.53,1.53,0,0,0,103.1,152.7Z" transform="translate(-63.65 -97.19)"/><path class="f" d="M89.17,118.12a4.69,4.69,0,0,0-3.28.43s-1.53,1.22-6.51-6.37c-2.23-3.41-4-3.26-5.19-2.06a18.33,18.33,0,0,1-7.63,4.39c-1.6.48-2.6,1.65-1.34,4.11.06.12.11.23.17.34,1.11,2.15,4.25,5.19,4.32,7.62.1,3.17-2.93,7.38,2.73,11.85,3.47,2.73,6,.68,9.89,1.06,0,0,2.4.15,2.94,7.64,0,0-.54,3.73,6,2.34,3.81-.81,8.11,1.78,8.11,1.78" transform="translate(-63.65 -97.19)"/><path class="f" d="M114.28,126.74a13.42,13.42,0,0,1,3.74-4.82c1.39-1,1.74-3.43,1.79-5.26a4.32,4.32,0,0,1,5.76-4l.13,0c2.25.85,3.5.74,4.19.13,0,0,5.13-6.11,8.89.2,0,0,9.86,2.14-1.42,11.8a4.38,4.38,0,0,0-1.19,2,2.54,2.54,0,0,0,.57,3c1.85,1.41,1.66,5.18-.19,5.88s-11.07,1.89-11.48,4.72c-.31,2.08,1.94,2.93,1.94,2.93s3.68,1.35-.86,3.26c-3.42,1.44-11.39,1.78-15.45,4.23" transform="translate(-63.65 -97.19)"/><path class="f" d="M129.28,150" transform="translate(-63.65 -97.19)"/><path class="e" d="M107.09,152.56a3.84,3.84,0,0,0,.8-.18l.57-.2A3.46,3.46,0,0,1,109,152a5.07,5.07,0,0,1,.58-.08l-.65.58a78.79,78.79,0,0,1,4.64-8.95c1.74-2.85,3.59-5.63,5.59-8.3s4.1-5.25,6.37-7.68a97.53,97.53,0,0,1,7.08-7c-1.1,1.24-2.23,2.45-3.31,3.71s-2.16,2.5-3.17,3.81c-2.08,2.56-4,5.23-5.89,7.95s-3.59,5.51-5.2,8.38a72.84,72.84,0,0,0-4.32,8.78,1,1,0,0,1-.65.58,3.16,3.16,0,0,1-.82.19,2.27,2.27,0,0,1-.89-.09,2,2,0,0,1-.83-.46A1.25,1.25,0,0,1,107.09,152.56Z" transform="translate(-63.65 -97.19)"/><ellipse class="e" cx="35.06" cy="72.98" rx="2.07" ry="4.87"/><ellipse class="e" cx="53.18" cy="72.98" rx="2.07" ry="4.87"/></svg>