<svg xmlns="http://www.w3.org/2000/svg" viewBox="0 0 100.9 152.61"><defs><style>.a{fill:#ebe7d2;}.b{fill:#68589f;}.c,.j{fill:#443f36;}.d,.e,.f,.i{fill:none;}.d,.f,.i{stroke:#443f36;stroke-width:2px;}.d{stroke-linecap:round;}.d,.f{stroke-linejoin:round;}.g{fill:#a89bcb;}.h{fill:#abbe85;}.i{stroke-miterlimit:10;}.j{isolation:isolate;font-size:25px;font-family:ArialRoundedMTBold, Arial Rounded MT Bold;}</style></defs><path class="a" d="M77.25,135.32s.31-6.39-1.24-6.51c0,0-1.47-1.58-2.52,2.47,0,0,.86-4.69-1.45-5.51a1.94,1.94,0,0,0-2,1.83s.41-4.23-.71-4.54c0,0-1.72-1.46-2.21,1.48,0,0-.26-5.7-2.47-3.64l12.57,58.6a9.42,9.42,0,0,1,2.34,1.92s2.57-1.94,3,4.05l2.59,3.74-2.53-18.76Z" transform="translate(-62.63 -41.92)"/><path class="b" d="M67.78,122.88,81.12,185l-2-3L65.39,120.88s.43-1.63,1.61,1.11S67.78,122.88,67.78,122.88Z" transform="translate(-62.63 -41.92)"/><path class="b" d="M73.49,130.65,83.7,187.88,82,186.63,70.11,126.12a1.64,1.64,0,0,1,1.93-.35S73.62,125.44,73.49,130.65Z" transform="translate(-62.63 -41.92)"/><polygon class="c" points="77.82 89.3 76.85 86.6 76.04 85.47 75.39 85.21 73.62 85.88 72.33 83.64 71.07 82.9 69.76 83.85 69.15 81.23 67.62 80.78 67.18 79.92 17.15 79.92 17.13 79.86 14.72 77.11 12.22 76.65 10.32 77.46 9.26 78.98 7.49 77.15 4.58 76.71 2.76 77.68 3.33 78.53 5.16 80.99 6.43 80.99 7.49 81.95 7.49 84.2 9.41 83.85 10.79 85.1 11.34 87.45 12.22 86.6 13.71 87.45 14.54 88.65 14.74 91.27 16.51 89.85 17.24 89.61 17.53 93.4 59.96 92.42 61.67 91.43 62.27 92.42 63.07 91.27 65.12 89.43 66.96 89.15 68.93 90.17 70.55 91.98 71.69 90.32 73.63 89.3 74.8 89.3 76.43 89.63 77.98 90.99 77.82 89.3"/><polygon class="a" points="10.63 75.33 5.39 75.66 3.92 79.32 5.16 80.99 6.97 80.17 7.49 81.95 8.28 83.33 10.63 84.23 11.04 86.37 14.74 87.86 15.09 89.41 16.51 88.72 18.05 86.84 10.63 75.33"/><polygon class="a" points="16.51 105.15 5.39 94.91 10.25 118.12 19.95 128.53 16.51 105.15"/><path class="d" d="M-42.92,45.27" transform="translate(-62.63 -41.92)"/><path class="d" d="M-42.92,45.27" transform="translate(-62.63 -41.92)"/><line class="d" x1="10.04" y1="117.17" x2="20.11" y2="128.83"/><line class="d" x1="5.07" y1="94.62" x2="16.51" y2="105.15"/><line class="d" x1="19.77" y1="144.19" x2="23.01" y2="147.9"/><line class="d" x1="1.81" y1="79.86" x2="14.54" y2="137.58"/><path class="d" d="M79.43,120.37a2.86,2.86,0,0,0-.36,1.4,3.7,3.7,0,0,0-7.32,0,3.68,3.68,0,0,0-7.31,0" transform="translate(-62.63 -41.92)"/><path class="d" d="M64.44,121.78c.06-.83.28-1.86,1.29-1.37,1.69.81,1.68,2.49,1.68,4.14.08-.86.2-2.23,1.46-1.71,2,.82,1.57,3.4,1.49,4.77.09-.92.18-2.36,1.58-1.88,2.54.87,1.53,3.69,1.55,5.55h0c.09-1,.53-3.29,2-2.73,2.52,1,1.74,4.77,1.74,6.77" transform="translate(-62.63 -41.92)"/><path class="d" d="M128.71,122a17.14,17.14,0,0,1,.37,2.35c0-.87.22-2.27,1.54-1.94,2.13.53,1.68,3.2,1.79,4.56,0-.92.21-2.4,1.66-2.13,2.64.49,2.05,3.43,2.34,5.26h0c0-1,.06-3.33,1.6-3,2.64.58,2.41,4.79,2.7,6.77" transform="translate(-62.63 -41.92)"/><path class="a" d="M141.3,136.06l-.84.14-.34,1.2-1.4.44L137,137.3l-1.88.28-1.49.72-1.57.08-1.36-.33-.2,1.14-1,.6-1.42-.52-.66-.46-.9.76-1.15.47-1.47-.64-1.06-.4-1.19-.12-1.35-1.66.17-1.68.58-.86,1.32-.35,2-2.65.79-.56,1,.19-5.92-2.89,3.29-4.73s7.71-3.4,8.85-1.37c0,0,3.65-.89,1.24,3.7l1.68,1.87,1.14.19.71,1.11.34.34,1.12-.81" transform="translate(-62.63 -41.92)"/><line class="e" x1="84.26" y1="95.55" x2="83.69" y2="94.74"/><path class="f" d="M130.47,130.45c-.07-2.71-2.11-2.76-2.11-2.76s-4.21-2.47-3.83,2.09" transform="translate(-62.63 -41.92)"/><path class="f" d="M128.67,133.82c-.41.23-.93-1.43-.93-1.43s-1.36-2.12-3-1.13-1.26,3.69-3.25,3.32-1.22,5.74,1.66,4.25c0,0,2.59,3,4-.53,0,0,1.89,3.35,3.25.2S130.8,132.62,128.67,133.82Z" transform="translate(-62.63 -41.92)"/><path class="f" d="M124.53,134.88c.26.4,1.1,2.13,3.83,1.4" transform="translate(-62.63 -41.92)"/><path class="f" d="M129.81,133.55s-1.17-3.38,2.28-3.61c0,0,2.26-4.82,5.21-.44,0,0,5.07.1,2.55,3.89,0,0,2.59,6.37-2.88,3.91,0,0-2.42-.3-3.12.76s-3.12-.16-3.12-.16" transform="translate(-62.63 -41.92)"/><path class="f" d="M133.75,133.32s1.06-1.81,3.65-.24" transform="translate(-62.63 -41.92)"/><path class="f" d="M134.51,130.73s1.89,2,1.26,4.18" transform="translate(-62.63 -41.92)"/><path class="f" d="M140.56,135.88" transform="translate(-62.63 -41.92)"/><path class="f" d="M141.84,130.73" transform="translate(-62.63 -41.92)"/><path class="f" d="M133.53,126c2.72-4.24-1.24-3.7-1.24-3.7-.8-1.85-4.29-.58-4.29-.58s-2.3-.54-2.3,1.46c0,.73.77,1.33,1.73,1.81a17.94,17.94,0,0,0,3.93,1.23c2.12-1.63,3.73,1.47,3.73,1.47" transform="translate(-62.63 -41.92)"/><path class="a" d="M103.25,93.88S82.86,93.94,79.14,110a15.32,15.32,0,0,0,3,10.4c1.37,1.74,47.71-7.9,47.71-7.9s2.43-7.31-9.54-14.71C120.27,97.82,111.45,93.34,103.25,93.88Z" transform="translate(-62.63 -41.92)"/><path class="g" d="M104.15,139.5s-.53-7.15-13-11.92c0,0-9.93-6.25-10.44-9.5S84,116,84,116s2.4,2.47,4.93,2.2,4.83.07,4.84-5.06c0-2.88,2.63-5.62,3.9-4.73s1.57,2.4,1.57,4.15c0,4.83,3.11,3.1,4,1.88s.37-4.13,3.41-4.38,3,3.16,3,3.16a2.58,2.58,0,0,0,4.07.12c2.16-2.27,6.3-.78,6.3-.78s3.32.78,4.21-.86,0-6.79,4-6c3.88,6.79-.85,18.83-11.71,21.57C116.52,127.19,105.05,133.81,104.15,139.5Z" transform="translate(-62.63 -41.92)"/><path class="h" d="M104.15,101l-1.38-.63-.71-2.29L101,97.78l-2.21-1.11a11.87,11.87,0,0,0-11-2s-2.85.76-3.64-3.43-.34-8-6.37-6.85-9.43-3.84-9.64-5.7,1.28-8.76-.48-10.06-4-6.85-4-6.85-2.43-1.31,4.5-3.52c0,0,5.19-2.79,5.9-4.19,0,0,1.4-2.27,9.14,8.66a12.18,12.18,0,0,0,4.66,0s1-1.88,6-4.91c0,0,2.59-.27.9-5.18,0,0-.59-12.56,9.4-8.94,0,0,8.86-2.66,7.07,9.28,0,0-1.86,6,3.24,1.36,0,0,5.69-2,4.11,5.15,0,0-3.09,6.35-3.46,7.73,0,0,1.69.28,2.91-1.94a5.69,5.69,0,0,0,.75-3.93s.09-5.39,6.27-3.78c0,0,2.06,1.82,6.52-2.12,0,0,3.52-1.56,6.19,2.31,0,0,9.69,1.55-2.52,13.51,0,0-1.17,1.79,1.7,5.49,0,0,2.93,3.91-10.86,6.36,0,0-3.91,1.64-1.32,4.11,0,0,9.75,2.36-6.88,5.78,0,0-8.21.8-9.09,4.56l-2.73.17s-1,2.44-.53,2.82S104.15,101,104.15,101Z" transform="translate(-62.63 -41.92)"/><path class="i" d="M96.08,94.88c-19.31,4.64-23.47,23.87-5,32.14h0c12.3,5.71,13.1,11.57,13.1,11.57s.5-5.47,12.79-11.19l.13-.07c19.78-8.25,15.22-28.46-5.35-32.71" transform="translate(-62.63 -41.92)"/><path class="c" d="M116.38,96.88a10.29,10.29,0,0,1,2.26.85,4.52,4.52,0,0,1,1.92,1.73,2,2,0,0,1,.17,1.53,2.82,2.82,0,0,1-.86,1.26,7.7,7.7,0,0,1-2.32,1.22,33.94,33.94,0,0,1-9.6,1.4,40.94,40.94,0,0,1-9.63-.75c-2.35-.55-4.89-1.2-6.64-3a3.94,3.94,0,0,1-.38-.53,1.6,1.6,0,0,1,.15-1.8,1.52,1.52,0,0,0,.61,1.93c4.78,2.51,10.58,2.09,15.84,2.12,1.57,0,3.13-.11,4.67-.24a29.23,29.23,0,0,0,4.54-.66c1.38-.37,3-1,2.56-2.14a4,4,0,0,0-1.32-1.65A15.31,15.31,0,0,0,116.38,96.88Z" transform="translate(-62.63 -41.92)"/><path class="c" d="M104.47,47.26c-2.16,17.49-4.09,35.44-.85,52.9l-.34-.55a2,2,0,0,0,.94.4.67.67,0,0,0,.61-.27l-.22.71a267.79,267.79,0,0,1-1.11-29.16,73.41,73.41,0,0,1,.73-9.71c-.3,12.93,1.2,25.83,2.33,38.69v.43l-.27.28c-1.17,1.48-3.32,1.09-4.56-.07C98.28,83.15,100.56,64.76,104.47,47.26Z" transform="translate(-62.63 -41.92)"/><path class="f" d="M102,97.08s-1-4.2-4.75-5c-3.19-.72-4.86-6.13-1.65-8.33,1.64-1.12,1.82-3.1,1.6-4.77-.42-3.52-3.4-5.9-6.09-7.85C88.34,68.88,85.62,63,90.67,60s5-4.14,4.24-5.94C93.49,50.2,96.35,40,104.15,43.74c0,0,9.54-2.92,6.78,11,0,0-.58,3.35,2.8.2a3.24,3.24,0,0,1,5.38,2.78c-.24,1.7-1.57,4-3.31,8-2.12,4.87-4,9-4,9s-1.47,3.17,1.56,2.65c3.76-.21,2.1,11-3.29,15.19-4.89,3.94-4.61,7.19-4.61,7.19" transform="translate(-62.63 -41.92)"/><path class="c" d="M94.75,90.09A240.71,240.71,0,0,1,77.39,67.23a60.55,60.55,0,0,1,14,16.44A50.5,50.5,0,0,1,94.75,90.09Z" transform="translate(-62.63 -41.92)"/><path class="c" d="M102.06,97.43c-.08,2.22-3.08,1.46-3.87.07l-.14-.19h0c-.48-1-1-2-1.4-3a26.8,26.8,0,0,1-1.18-3.13,26.53,26.53,0,0,1,4.21,5.17l-.14-.19c.47.34.86.68,1.16.93a1.87,1.87,0,0,0,.45.33A1.49,1.49,0,0,0,102.06,97.43Z" transform="translate(-62.63 -41.92)"/><path class="f" d="M88.14,62.88a4.74,4.74,0,0,0-3.29.43s-1.53,1.18-6.5-6.43c-2.24-3.41-4-3.26-5.19-2.06a18.52,18.52,0,0,1-7.63,4.39c-1.81.45-2.59,2.11-1.17,4.45,1.11,2.22,4.26,5.22,4.32,7.65.1,3.17-2.94,7.38,2.73,11.85,3.46,2.73,6,.68,9.89,1.06,0,0,2.39.15,2.94,7.64,0,0-.55,3.73,6,2.34,3.82-.81,8.12,1.78,8.12,1.78" transform="translate(-62.63 -41.92)"/><path class="f" d="M113.24,71.46A13.45,13.45,0,0,1,117,66.65c1.39-1,1.73-3.43,1.78-5.26a4.35,4.35,0,0,1,5.77-4h.13c2.25.85,3.5.73,4.18.13,0,0,5.13-6.11,8.9.19,0,0,9.86,2.15-1.43,11.81a4.22,4.22,0,0,0-1.18,2,2.5,2.5,0,0,0,.57,3c1.85,1.41,1.66,5.17-.19,5.88S124.45,82.29,124,85.12c-.3,2.08,1.94,2.93,1.94,2.93s3.68,1.34-.85,3.26c-3.43,1.44-11.39,1.77-15.46,4.23" transform="translate(-62.63 -41.92)"/><path class="f" d="M128.24,94.67" transform="translate(-62.63 -41.92)"/><path class="c" d="M106.05,97.29a3.7,3.7,0,0,0,.8-.18c.21-.08.39-.15.57-.2a3.05,3.05,0,0,1,.54-.14,4.89,4.89,0,0,1,.57-.08l-.64.57c5.41-12.2,13.81-23,23.67-31.93-2.22,2.48-4.45,4.9-6.47,7.53A118.45,118.45,0,0,0,114,89.18,76.13,76.13,0,0,0,109.67,98a1,1,0,0,1-.64.57,2.41,2.41,0,0,1-2.54-.35A1.21,1.21,0,0,1,106.05,97.29Z" transform="translate(-62.63 -41.92)"/><path class="c" d="M97.68,111c2.71.09,2.71,9.65,0,9.74C95,120.68,95,111.12,97.68,111Z" transform="translate(-62.63 -41.92)"/><path class="c" d="M115.8,111c2.71.09,2.71,9.65,0,9.74C113.08,120.68,113.08,111.12,115.8,111Z" transform="translate(-62.63 -41.92)"/><path class="a" d="M71.32,116.59s3.45-1.17,4.39,1c0,0,3.72-.55.89,3.8l1.5,2,1.11.3.61,1.19.3.36,1.2-.7,1.35-.28,1.54.68,2,.26,1.26,1.68L87.6,128l1.16,1,.09,1.26H94l1.45,1.37.75,1.67-.57.89-.76.62-1,.71-3-.64-1.34-.2-.74-.68-.5-.85-.42-1-.38-.53-1.25.65-2.88-.18-.84.06-.45,1.17-1.45.3-1.69-.7" transform="translate(-62.63 -41.92)"/><path class="f" d="M75.71,133.38" transform="translate(-62.63 -41.92)"/><path class="f" d="M74.72,125.13s2.7-4.58,5.23.06c0,0,5,.57,2.18,4.1" transform="translate(-62.63 -41.92)"/><path class="f" d="M76.06,128.65s1.22-1.7,3.65.11" transform="translate(-62.63 -41.92)"/><path class="f" d="M77.06,126.15s1.7,2.12.86,4.28" transform="translate(-62.63 -41.92)"/><path class="f" d="M77.92,123.18s-1.31-3.24-3.57-1.82" transform="translate(-62.63 -41.92)"/><path class="f" d="M82.62,131.88s4.15,1.56,4.79-.72c0,0,3.32-1.55,0-3.3,0,0,.39-3.73-3-2.55,0,0-1.3-2.92-4,0" transform="translate(-62.63 -41.92)"/><path class="f" d="M84.36,126.88s1.8,0,1.64,3.12" transform="translate(-62.63 -41.92)"/><path class="f" d="M92.22,131.78a2,2,0,0,0-2.6-1.48c-2,.66-1.84,1.85-1.84,1.85s-.38.84,1.08,1.31c0,0-.93,1.38,1.74,1.33,0,0,3.09,1.83,4.1,0,0,0,2.37-.47,1-2.26,0,0-.5-4.16-4.38-2.29" transform="translate(-62.63 -41.92)"/><path class="f" d="M90.77,131.64a3.6,3.6,0,0,0,3-.31" transform="translate(-62.63 -41.92)"/><path class="f" d="M67.69,121c-2.42-5.12,3.73-4.44,3.73-4.44s3.6-.94,4.22,1c0,0,4-.17.89,3.8" transform="translate(-62.63 -41.92)"/><path class="a" d="M85.24,134.65s4-8.43,7.94,0c0,0,1.9-5.57,5.87-3l2.25,2.66,1.73-2.4,1.89-.47,1.28-.2a3.41,3.41,0,0,1,2.92,3s1.61-4.58,5.07-2.86a3.68,3.68,0,0,1,2.82,3.26s.74-4.5,4.75-3.16c0,0,2.61-.73,3.23,3.54,0,0,.37-4.27,4.59-3.81,0,0,2-.18,3.38,3.81,0,0,1.56-4.11,3.68-3.8l-5.19,58-45.83.6L77.16,136.1l1.46-3.92,2.67-1.11,1.93.56,1.08.92Z" transform="translate(-62.63 -41.92)"/><path class="b" d="M85.62,189.82l7.24-.3-6.18-57.23a2.36,2.36,0,0,0-1.25,1.59c-5.18-6.91-7.73.88-7.73.88Z" transform="translate(-62.63 -41.92)"/><path class="b" d="M99.22,189.68l7.75.11-2-58.37a4.66,4.66,0,0,0-3.62,1.89c-3-3.19-5.67-1.89-5.67-1.89Z" transform="translate(-62.63 -41.92)"/><path class="b" d="M113.82,189.88l7.4.15,2.22-58.13c-2.32-.14-2.6-2.28-6.25,1.58-.67.71-2-2.07-3-2.13Z" transform="translate(-62.63 -41.92)"/><path class="b" d="M127.75,189.88l7.3.49,5.81-54.51s.74-4.44-4.93-4.64c-1,0-2.23,2-2.68,2.14-.81.22-1.11-1.35-1.55-1.09Q129.73,161,127.75,189.88Z" transform="translate(-62.63 -41.92)"/><polygon class="a" points="76.85 105.15 16.46 105.1 20.26 128.83 74.01 128.83 76.85 105.15"/><path class="a" d="M136.09,175.28s3.33-1.5,4.47.54c0,0,3.65-.89,1.25,3.7l1.67,1.86,1.14.19.72,1.12.33.33,1.12-.81,1.32-.41,1.6.54,2,.07,1.45,1.55.23,1.1,1.26.89.2,1.25c1.49-.19,3.6-.44,5.11-.61l1.57,1.24.9,1.58-.52,1.11-.69.69-1,.8-2.93-.35-1.35-.08-.8-.6-.58-.81-.51-1-.43-.5-1.18.77-2.89.1-.83.13-.34,1.2-1.41.44-1.75-.54-1.88.28-1.48.72-1.58.08-1.36-.32-.2,1.14-1.05.6-1.42-.53-.66-.46-.89.76-1.16.47-1.47-.63-1.06-.41-1.14-.14-1.36-1.66.17-1.68.58-.85,1.36-.26,2-2.66.8-.56,1,.19h.6Z" transform="translate(-62.63 -41.92)"/><path class="a" d="M79.51,181.42s-3.12-4.47-4.6.21c0,0-2.15.48-.39,2.68,0,0-3.87,5.45,3.62,4.65,0,0,5.08.16,4.37-3.49S82.76,180.34,79.51,181.42Z" transform="translate(-62.63 -41.92)"/><path class="f" d="M136.62,181.2s2,.05,2.1,2.76" transform="translate(-62.63 -41.92)"/><path class="f" d="M137,187.33c-.42.23-.93-1.43-.93-1.43s-1.36-2.12-3-1.13-1.26,3.69-3.25,3.32-1.21,5.74,1.66,4.25c0,0,2.59,3,4-.53,0,0,1.89,3.35,3.25.2S139.07,186.13,137,187.33Z" transform="translate(-62.63 -41.92)"/><path class="f" d="M132.8,188.42c.26.4,1.1,2.13,3.84,1.4" transform="translate(-62.63 -41.92)"/><path class="f" d="M138.09,187.06s-1.18-3.38,2.27-3.61c0,0,2.26-4.81,5.21-.43,0,0,5.08.1,2.56,3.88,0,0,2.58,6.37-2.89,3.91,0,0-2.42-.3-3.12.77s-3.12-.17-3.12-.17" transform="translate(-62.63 -41.92)"/><path class="f" d="M142,186.88s1.06-1.81,3.65-.24" transform="translate(-62.63 -41.92)"/><path class="f" d="M142.78,184.24s1.9,2,1.27,4.18" transform="translate(-62.63 -41.92)"/><path class="f" d="M143.36,181.2s-1.6-3.09-3.73-1.47c0,0-1.23-3.4-4-.47" transform="translate(-62.63 -41.92)"/><path class="f" d="M148.83,189.42s4.27,1.16,4.7-1.16c0,0,3.16-1.86-.36-3.29,0,0,0-3.75-3.19-2.25,0,0-1.56-2.79-4,.33" transform="translate(-62.63 -41.92)"/><path class="f" d="M150.12,184.24s1.79-.16,1.92,3" transform="translate(-62.63 -41.92)"/><path class="f" d="M158.41,188.42s-.81-2.07-2.69-1.22-1.65,2-1.65,2-.3.87,1.19,1.2c0,0-.8,1.46,1.86,1.17,0,0,3.25,1.52,4.08-.37,0,0,2.32-.7.83-2.35,0,0-.9-4.09-4.58-1.87" transform="translate(-62.63 -41.92)"/><path class="f" d="M157,188.42a3.54,3.54,0,0,0,3-.59" transform="translate(-62.63 -41.92)"/><path class="f" d="M136.27,175.23s3.5-1.27,4.29.59c0,0,4-.55,1.25,3.7" transform="translate(-62.63 -41.92)"/><path class="f" d="M74.62,184.21s-1.69-1.86.45-2.63c0,0,.4-5,4.47-.16,0,0,2.91-1.78,2.82,3.31,0,0,1.42,4.64-3.79,4.19C78.54,188.88,70.28,189.88,74.62,184.21Z" transform="translate(-62.63 -41.92)"/><path class="f" d="M76.73,184.15s2.82-.55,3.43,1.79" transform="translate(-62.63 -41.92)"/><path class="f" d="M135,184.77l5.82-48.46a5.58,5.58,0,0,0,.12-1" transform="translate(-62.63 -41.92)"/><path class="f" d="M140.89,135.32c.41-5.93-8.36-5.93-7.94,0,.41-5.93-8.36-5.93-7.94,0-.14-5.27-7.87-5.27-8,0,.41-5.93-8.36-5.93-7.94,0,.41-5.93-8.36-5.93-7.94,0,.41-5.93-8.36-5.93-7.94,0-.14-5.27-7.87-5.27-8,0,.41-5.93-8.36-5.93-7.94,0" transform="translate(-62.63 -41.92)"/><path class="f" d="M77.35,135.32a4.62,4.62,0,0,0,.18,1.22l8.09,53.28h43.07" transform="translate(-62.63 -41.92)"/><line class="f" x1="16.51" y1="105.15" x2="76.85" y2="105.15"/><line class="f" x1="74.01" y1="128.83" x2="20.11" y2="128.83"/><text class="j" transform="translate(29.48 125.96)">PN</text><path class="a" d="M71.42,116.56" transform="translate(-62.63 -41.92)"/><path class="f" d="M127.43,125s-3.59-2.47-4.8,1.21c0,0-3.1-1.3-2.36,3.58" transform="translate(-62.63 -41.92)"/><path class="c" d="M112.77,131.87a3.75,3.75,0,0,1,2.51.78c1,.9.94-.79.94-.79l-1.53-.86-1.92.22Z" transform="translate(-62.63 -41.92)"/><polygon class="c" points="15.55 92.25 13.74 92.25 14.3 94.95 15.89 94.95 15.55 92.25"/></svg>