<svg xmlns="http://www.w3.org/2000/svg" viewBox="0 0 200 200"><rect width="200" height="200" style="fill:none"/><path d="M72.2,137s.31-6.39-1.24-6.51c0,0-1.47-1.58-2.52,2.47,0,0,.86-4.69-1.45-5.51a1.94,1.94,0,0,0-2,1.83s.41-4.23-.71-4.54c0,0-1.72-1.46-2.21,1.48,0,0-.26-5.7-2.47-3.64l12.57,58.6a9.42,9.42,0,0,1,2.34,1.92s2.57-1.94,3,4.05l2.59,3.74L77.57,172.1Z" style="fill:#ebe7d3"/><path d="M62.73,124.53l13.34,62.12-2-3L60.34,122.53s.43-1.63,1.61,1.11S62.73,124.53,62.73,124.53Z" style="fill:#6859a0"/><path d="M68.44,132.3l10.21,57.23L77,188.28,65.06,127.77a1.63,1.63,0,0,1,1.93-.35S68.57,127.09,68.44,132.3Z" style="fill:#6859a0"/><polygon points="135.4 132.87 134.43 130.17 133.62 129.04 132.97 128.78 131.19 129.45 129.91 127.21 128.65 126.47 127.33 127.42 126.72 124.8 125.19 124.35 124.75 123.49 74.72 123.49 74.7 123.43 72.3 120.68 69.8 120.22 67.89 121.03 66.83 122.55 65.06 120.72 62.16 120.28 60.34 121.25 60.91 122.1 62.73 124.56 64 124.56 65.06 125.52 65.06 127.77 66.98 127.42 68.36 128.67 68.92 131.02 69.8 130.17 71.28 131.02 72.11 132.22 72.31 134.84 74.08 133.42 74.81 133.18 75.11 136.97 117.53 135.99 119.25 135 119.84 135.99 120.64 134.84 122.69 133 124.53 132.72 126.5 133.74 128.13 135.55 129.26 133.89 131.21 132.87 132.38 132.87 134 133.2 135.56 134.56 135.4 132.87" style="fill:#443f36"/><polygon points="68.2 118.9 62.97 119.23 61.49 122.89 62.73 124.56 64.55 123.74 65.06 125.52 65.86 126.9 68.2 127.8 68.61 129.94 72.31 131.43 72.67 132.98 74.08 132.29 75.63 130.41 68.2 118.9" style="fill:#ebe7d3"/><polygon points="74.08 148.72 62.97 138.48 67.83 161.69 77.53 172.1 74.08 148.72" style="fill:#ebe7d3"/><line x1="67.61" y1="160.74" x2="77.68" y2="172.4" style="fill:none;stroke:#443f36;stroke-linecap:round;stroke-linejoin:round;stroke-width:2px"/><line x1="62.64" y1="138.19" x2="74.08" y2="148.72" style="fill:none;stroke:#443f36;stroke-linecap:round;stroke-linejoin:round;stroke-width:2px"/><line x1="77.34" y1="187.76" x2="80.58" y2="191.47" style="fill:none;stroke:#443f36;stroke-linecap:round;stroke-linejoin:round;stroke-width:2px"/><line x1="59.38" y1="123.43" x2="72.11" y2="181.15" style="fill:none;stroke:#443f36;stroke-linecap:round;stroke-linejoin:round;stroke-width:2px"/><path d="M74.38,122a3,3,0,0,0-.36,1.4,3.69,3.69,0,0,0-7.32,0,3.68,3.68,0,0,0-7.31,0" style="fill:none;stroke:#443f36;stroke-linecap:round;stroke-linejoin:round;stroke-width:2px"/><path d="M59.39,123.43c.06-.83.28-1.86,1.29-1.37,1.69.81,1.68,2.49,1.68,4.14.08-.86.2-2.23,1.46-1.71,2,.82,1.57,3.4,1.49,4.77.09-.92.18-2.36,1.58-1.88,2.54.87,1.53,3.69,1.55,5.55h0c.09-1,.53-3.29,2-2.73,2.52,1,1.74,4.77,1.74,6.77" style="fill:none;stroke:#443f36;stroke-linecap:round;stroke-linejoin:round;stroke-width:2px"/><path d="M123.66,123.65A15.53,15.53,0,0,1,124,126c0-.87.22-2.27,1.54-1.94,2.13.53,1.68,3.2,1.79,4.56,0-.92.21-2.4,1.66-2.13,2.64.49,2,3.43,2.34,5.26h0c0-1,.06-3.33,1.6-3,2.64.58,2.41,4.79,2.7,6.77" style="fill:none;stroke:#443f36;stroke-linecap:round;stroke-linejoin:round;stroke-width:2px"/><path d="M136.25,137.71l-.84.14-.34,1.2-1.4.44L132,139l-1.88.28-1.49.72L127,140l-1.36-.33-.2,1.14-1,.6-1.42-.52-.66-.46-.9.76-1.15.47-1.47-.64-1.06-.4-1.19-.12-1.35-1.66.17-1.68.58-.86,1.32-.35,2-2.65.79-.56,1,.19h.6l1.15-9.55s3.33-1.5,4.47.53c0,0,3.65-.89,1.24,3.7l1.68,1.87,1.14.19.71,1.11.34.34,1.12-.81" style="fill:#ebe7d3"/><line x1="141.83" y1="139.12" x2="141.26" y2="138.31" style="fill:none"/><path d="M123.31,129.34s2,0,2.11,2.76" style="fill:none;stroke:#443f36;stroke-linejoin:round;stroke-width:2px"/><path d="M123.62,135.47c-.41.23-.93-1.43-.93-1.43s-1.36-2.12-3-1.13-1.26,3.69-3.25,3.32-1.22,5.74,1.66,4.25c0,0,2.59,3,4-.53,0,0,1.89,3.35,3.25.2S125.75,134.27,123.62,135.47Z" style="fill:none;stroke:#443f36;stroke-linejoin:round;stroke-width:2px"/><path d="M119.48,136.53c.26.4,1.1,2.13,3.83,1.4" style="fill:none;stroke:#443f36;stroke-linejoin:round;stroke-width:2px"/><path d="M124.76,135.2s-1.17-3.38,2.28-3.61c0,0,2.26-4.82,5.21-.44,0,0,5.07.1,2.55,3.89,0,0,2.59,6.37-2.88,3.91,0,0-2.42-.3-3.12.76s-3.12-.16-3.12-.16" style="fill:none;stroke:#443f36;stroke-linejoin:round;stroke-width:2px"/><path d="M128.7,135s1.06-1.81,3.65-.24" style="fill:none;stroke:#443f36;stroke-linejoin:round;stroke-width:2px"/><path d="M129.46,132.38s1.89,2,1.26,4.18" style="fill:none;stroke:#443f36;stroke-linejoin:round;stroke-width:2px"/><path d="M130,129.34s-1.61-3.1-3.73-1.47c0,0-1.24-3.4-4-.47" style="fill:none;stroke:#443f36;stroke-linejoin:round;stroke-width:2px"/><path d="M135.51,137.53" style="fill:none;stroke:#443f36;stroke-linejoin:round;stroke-width:2px"/><path d="M136.79,132.38" style="fill:none;stroke:#443f36;stroke-linejoin:round;stroke-width:2px"/><path d="M123,123.37s3.49-1.27,4.29.58c0,0,4-.54,1.24,3.7" style="fill:none;stroke:#443f36;stroke-linejoin:round;stroke-width:2px"/><path d="M98.2,105.53s-20.39.06-24.11,16.13a15.39,15.39,0,0,0,3,10.4c1.37,1.74,47.71-7.9,47.71-7.9s2.43-7.31-9.54-14.71C115.22,109.47,106.4,105,98.2,105.53Z" style="fill:#ebe7d3"/><path d="M99.1,151.15s-.53-7.15-13-11.92c0,0-9.93-6.25-10.44-9.5S79,127.65,79,127.65s2.4,2.47,4.93,2.2,4.83.07,4.84-5.06c0-2.88,2.63-5.62,3.9-4.73s1.57,2.4,1.57,4.15c0,4.83,3.11,3.1,4,1.88s.37-4.13,3.41-4.38,3,3.16,3,3.16a2.56,2.56,0,0,0,3.58.58h0a2.39,2.39,0,0,0,.49-.46c2.16-2.27,6.3-.78,6.3-.78s3.32.78,4.21-.86,0-6.79,4-6c0,0,4.16,6.4-2.17,15.37-3.21,4.56-9.54,6.2-9.54,6.2S100,145.46,99.1,151.15Z" style="fill:#a89bcb"/><path d="M99.1,112.65,97.72,112,97,109.73l-1.08-.29-2.21-1.11a11.86,11.86,0,0,0-11-2s-2.85.76-3.64-3.43-.34-8-6.37-6.85-9.43-3.84-9.64-5.7,1.28-8.76-.48-10.06-4-6.85-4-6.85-2.43-1.31,4.5-3.52c0,0,5.19-2.79,5.9-4.19,0,0,1.4-2.27,9.14,8.66a12.18,12.18,0,0,0,4.66,0s1-1.88,6-4.91c0,0,2.59-.27.9-5.18,0,0-.59-12.56,9.4-8.94,0,0,8.86-2.66,7.07,9.28,0,0-1.86,6,3.24,1.36,0,0,5.69-2,4.11,5.15,0,0-3.09,6.35-3.46,7.73,0,0,1.69.28,2.91-1.94a5.66,5.66,0,0,0,.75-3.93s.09-5.39,6.27-3.78c0,0,2.06,1.82,6.52-2.12,0,0,3.52-1.56,6.19,2.31,0,0,9.69,1.55-2.52,13.51,0,0-1.17,1.79,1.7,5.49,0,0,2.93,3.91-10.86,6.36,0,0-3.91,1.64-1.32,4.11,0,0,9.75,2.36-6.88,5.78,0,0-8.21.8-9.09,4.56l-2.73.17s-1,2.44-.53,2.82S99.1,112.65,99.1,112.65Z" style="fill:#abbe85"/><path d="M91,106.53c-9.87,2.45-16.94,9.1-16.94,16.93,0,6.41,4.76,12,11.91,15.21h0c12.3,5.71,13.1,11.57,13.1,11.57s.5-5.47,12.79-11.19L112,139c7.56-3.1,12.74-8.89,12.74-15.52,0-8.13-7.63-15-18.09-17.19" style="fill:none;stroke:#443f36;stroke-miterlimit:10;stroke-width:2px"/><path d="M111.33,108.53a9.92,9.92,0,0,1,2.26.85,4.41,4.41,0,0,1,1.92,1.73,2,2,0,0,1,.17,1.53,2.8,2.8,0,0,1-.86,1.26,7.69,7.69,0,0,1-2.32,1.22,34.2,34.2,0,0,1-9.6,1.4,41,41,0,0,1-9.63-.75,20.67,20.67,0,0,1-4.64-1.52,7.28,7.28,0,0,1-2-1.44,6.42,6.42,0,0,1-.38-.53,1.62,1.62,0,0,1,.15-1.8,1.54,1.54,0,0,0,.61,1.93,7.44,7.44,0,0,0,2,.93,25.93,25.93,0,0,0,4.53.89,65.85,65.85,0,0,0,9.31.3c1.57,0,3.13-.11,4.67-.24a28.89,28.89,0,0,0,4.54-.66c1.38-.37,3-1,2.56-2.14a4,4,0,0,0-1.32-1.65A14.34,14.34,0,0,0,111.33,108.53Z" style="fill:#443f36"/><path d="M99.42,58.91c-.6,4.41-1.13,8.83-1.51,13.26S97.17,81,97,85.45s-.18,8.86,0,13.27a93,93,0,0,0,1.56,13.09l-.34-.55a3.17,3.17,0,0,0,.47.27,1.32,1.32,0,0,0,.47.13.68.68,0,0,0,.61-.27l-.22.71c-.29-3.23-.49-6.47-.69-9.7s-.32-6.48-.42-9.73-.13-6.49,0-9.73a75,75,0,0,1,.73-9.71c-.15,3.24-.07,6.47.08,9.7s.34,6.45.6,9.68c.46,6.44,1,12.89,1.65,19.31v.43l-.27.28a2.89,2.89,0,0,1-1,.76,2.48,2.48,0,0,1-1.29.26,3.25,3.25,0,0,1-1.09-.28,4.38,4.38,0,0,1-.93-.55l-.27-.21-.07-.35a84,84,0,0,1-1.54-13.41c-.12-4.48,0-9,.29-13.44s.84-8.91,1.51-13.32c.32-2.21.73-4.4,1.15-6.59S98.88,61.07,99.42,58.91Z" style="fill:#443f36"/><path d="M97,108.73s-1-4.2-4.75-5C89,103,87.34,97.6,90.55,95.4c1.64-1.12,1.82-3.1,1.6-4.77a8,8,0,0,0-2.09-4.4,24,24,0,0,0-4-3.45c-2.77-2.25-5.49-8.13-.44-11.13s5-4.14,4.24-5.94c-1.42-3.86,1.44-14.06,9.24-10.32,0,0,9.54-2.92,6.78,11,0,0-.58,3.35,2.8.2a3.22,3.22,0,0,1,5.38,2.78c-.24,1.7-1.57,4-3.31,8-2.12,4.87-4,9-4,9s-1.47,3.17,1.56,2.65c3.76-.21,2.1,11-3.29,15.19-4.89,3.94-4.61,7.19-4.61,7.19" style="fill:none;stroke:#443f36;stroke-linejoin:round;stroke-width:2px"/><path d="M89.7,101.74c-1.65-1.79-3.15-3.65-4.63-5.53s-2.92-3.77-4.37-5.65-2.85-3.81-4.25-5.74-2.8-3.87-4.11-5.91a43.42,43.42,0,0,1,5.32,4.91c1.65,1.76,3.17,3.62,4.64,5.53a51.29,51.29,0,0,1,4,6A49.47,49.47,0,0,1,89.7,101.74Z" style="fill:#443f36"/><path d="M97,109.08a1.2,1.2,0,0,1-.55,1.13,1.81,1.81,0,0,1-1.42.24,3.29,3.29,0,0,1-1.9-1.3L93,109h0c-.48-1-1-2-1.4-3a29.53,29.53,0,0,1-1.18-3.13,21.23,21.23,0,0,1,2.28,2.46A27.15,27.15,0,0,1,94.63,108l-.14-.19c.47.34.86.68,1.16.93a2.36,2.36,0,0,0,.45.33A1.49,1.49,0,0,0,97,109.08Z" style="fill:#443f36"/><path d="M83.09,74.53A4.7,4.7,0,0,0,79.8,75s-1.53,1.18-6.5-6.43c-2.24-3.41-4-3.26-5.19-2.06a18.56,18.56,0,0,1-7.63,4.39c-1.6.48-2.6,1.65-1.35,4.11l.18.34c1.11,2.22,4.26,5.22,4.32,7.65.1,3.17-2.94,7.38,2.73,11.85,3.46,2.73,6,.68,9.89,1.06,0,0,2.39.15,2.94,7.64,0,0-.55,3.73,6,2.34,3.82-.81,8.12,1.78,8.12,1.78" style="fill:none;stroke:#443f36;stroke-linejoin:round;stroke-width:2px"/><path d="M108.19,83.11A13.5,13.5,0,0,1,112,78.3c1.39-1,1.73-3.43,1.78-5.26a4.32,4.32,0,0,1,4.4-4.24h0a4.42,4.42,0,0,1,1.36.24h.13c2.25.85,3.5.73,4.18.13,0,0,5.13-6.11,8.9.19,0,0,9.86,2.15-1.43,11.81a4.21,4.21,0,0,0-1.18,2,2.52,2.52,0,0,0,.57,3c1.85,1.41,1.66,5.17-.19,5.88S119.4,93.94,119,96.77c-.3,2.08,1.94,2.93,1.94,2.93S124.57,101,120,103c-3.43,1.44-11.39,1.77-15.46,4.23" style="fill:none;stroke:#443f36;stroke-linejoin:round;stroke-width:2px"/><path d="M123.19,106.32" style="fill:none;stroke:#443f36;stroke-linejoin:round;stroke-width:2px"/><path d="M101,108.94a3.45,3.45,0,0,0,.8-.18c.21-.08.39-.15.57-.2a2.69,2.69,0,0,1,.54-.14,3.72,3.72,0,0,1,.57-.08l-.64.57a76.44,76.44,0,0,1,4.64-8.94c1.73-2.85,3.58-5.63,5.58-8.3A92.25,92.25,0,0,1,119.44,84c2.28-2.43,4.62-4.77,7.07-7-1.1,1.25-2.23,2.46-3.31,3.71s-2.15,2.51-3.16,3.82c-2.09,2.56-4,5.23-5.89,7.94s-3.6,5.52-5.21,8.38a77,77,0,0,0-4.32,8.79,1,1,0,0,1-.64.57,2.88,2.88,0,0,1-.83.2,2.24,2.24,0,0,1-.89-.09,1.91,1.91,0,0,1-.82-.46A1.22,1.22,0,0,1,101,108.94Z" style="fill:#443f36"/><ellipse cx="92.62" cy="126.55" rx="2.07" ry="4.87" style="fill:#443f36"/><ellipse cx="110.74" cy="126.55" rx="2.07" ry="4.87" style="fill:#443f36"/><path d="M66.27,118.24s3.45-1.17,4.39,1c0,0,3.72-.55.89,3.8l1.5,2,1.11.3.61,1.19.3.36,1.2-.7,1.35-.28,1.54.68,2,.26,1.26,1.68.13,1.12,1.16,1,.09,1.26H89l1.45,1.37.75,1.67-.57.89-.76.62-1,.71-3-.64-1.34-.2-.74-.68-.5-.85-.42-1-.38-.53-1.25.65-2.88-.18-.84.06L77,135l-1.45.3-1.69-.7" style="fill:#ebe7d3"/><path d="M70.66,135" style="fill:none;stroke:#443f36;stroke-linejoin:round;stroke-width:2px"/><path d="M69.67,126.78s2.7-4.58,5.23.06c0,0,5,.57,2.18,4.1" style="fill:none;stroke:#443f36;stroke-linejoin:round;stroke-width:2px"/><path d="M71,130.3s1.22-1.7,3.65.11" style="fill:none;stroke:#443f36;stroke-linejoin:round;stroke-width:2px"/><path d="M72,127.8s1.7,2.12.86,4.28" style="fill:none;stroke:#443f36;stroke-linejoin:round;stroke-width:2px"/><path d="M72.87,124.83s-1.31-3.24-3.57-1.82" style="fill:none;stroke:#443f36;stroke-linejoin:round;stroke-width:2px"/><path d="M77.57,133.53s4.15,1.56,4.79-.72c0,0,3.32-1.55,0-3.3,0,0,.39-3.73-3-2.55,0,0-1.3-2.92-4,0" style="fill:none;stroke:#443f36;stroke-linejoin:round;stroke-width:2px"/><path d="M79.31,128.53s1.8,0,1.64,3.12" style="fill:none;stroke:#443f36;stroke-linejoin:round;stroke-width:2px"/><path d="M87.17,133.43a2,2,0,0,0-2.37-1.55l-.23.07c-2,.66-1.84,1.85-1.84,1.85s-.38.84,1.08,1.31c0,0-.93,1.38,1.74,1.33,0,0,3.09,1.83,4.1,0,0,0,2.37-.47,1-2.26,0,0-.5-4.16-4.38-2.29" style="fill:none;stroke:#443f36;stroke-linejoin:round;stroke-width:2px"/><path d="M85.72,133.29a3.63,3.63,0,0,0,3-.31" style="fill:none;stroke:#443f36;stroke-linejoin:round;stroke-width:2px"/><path d="M62.64,122.65c-2.42-5.12,3.73-4.44,3.73-4.44s3.6-.94,4.22,1c0,0,4-.17.89,3.8" style="fill:none;stroke:#443f36;stroke-linejoin:round;stroke-width:2px"/><path d="M80.19,136.3s4-8.43,7.94,0c0,0,1.9-5.57,5.87-3L96.25,136l1.73-2.4,1.89-.47,1.28-.2a3.4,3.4,0,0,1,2.92,3s1.61-4.58,5.07-2.86a3.66,3.66,0,0,1,2.82,3.26s.74-4.5,4.75-3.16c0,0,2.61-.73,3.23,3.54,0,0,.37-4.27,4.59-3.81,0,0,2-.18,3.38,3.81,0,0,1.56-4.11,3.68-3.8l-5.19,58-45.83.6-8.46-53.72,1.46-3.92,2.67-1.11,1.93.56,1.08.92Z" style="fill:#ebe7d3"/><path d="M80.57,191.47l7.24-.3-6.18-57.23a2.37,2.37,0,0,0-1.25,1.59c-5.18-6.91-7.73.88-7.73.88Z" style="fill:#6859a0"/><path d="M94.17,191.33l7.75.11-2-58.37A4.66,4.66,0,0,0,96.3,135c-3-3.19-5.67-1.89-5.67-1.89Z" style="fill:#6859a0"/><path d="M108.77,191.53l7.4.15,2.22-58.13c-2.32-.14-2.6-2.28-6.25,1.58-.67.71-2-2.07-3-2.13Z" style="fill:#6859a0"/><path d="M122.7,191.53l7.3.49,5.81-54.51s.74-4.44-4.93-4.64c-1,0-2.23,2-2.68,2.14-.81.22-1.11-1.35-1.55-1.09Q124.69,162.64,122.7,191.53Z" style="fill:#6859a0"/><polygon points="134.43 148.72 74.03 148.67 77.83 172.4 131.59 172.4 134.43 148.72" style="fill:#ebe7d3"/><path d="M131,176.93s3.33-1.5,4.47.54c0,0,3.65-.89,1.25,3.7l1.67,1.86,1.14.19.72,1.12.33.33,1.12-.81,1.32-.41,1.6.54,2,.07,1.45,1.55.23,1.1,1.26.89.2,1.25,1.53-.19,1.5-.18,2.08-.24,1.57,1.24.9,1.58-.52,1.11-.69.69-1,.8-2.93-.35-1.35-.08-.8-.6-.58-.81-.51-1-.43-.5-1.18.77-2.89.1-.83.13-.34,1.2-1.41.44-1.75-.54-1.88.28-1.48.72-1.58.08-1.36-.32-.2,1.14-1,.6-1.42-.53-.66-.46-.89.76-1.16.47-1.47-.63-1.06-.41-1.14-.14-1.36-1.66.17-1.68.58-.85,1.36-.26,2-2.66.8-.56,1,.19h.6Z" style="fill:#ebe7d3"/><path d="M74.46,183.07s-3.12-4.47-4.6.21c0,0-2.15.48-.39,2.68,0,0-3.87,5.45,3.62,4.65,0,0,5.08.16,4.37-3.49S77.71,182,74.46,183.07Z" style="fill:#ebe7d3"/><path d="M131.57,182.85s2,.05,2.1,2.76" style="fill:none;stroke:#443f36;stroke-linejoin:round;stroke-width:2px"/><path d="M132,189c-.42.23-.93-1.43-.93-1.43s-1.36-2.12-3-1.13-1.26,3.69-3.25,3.32-1.21,5.74,1.66,4.25c0,0,2.59,3,4-.53,0,0,1.89,3.35,3.25.2S134,187.78,132,189Z" style="fill:none;stroke:#443f36;stroke-linejoin:round;stroke-width:2px"/><path d="M127.75,190.07c.26.4,1.1,2.13,3.84,1.4" style="fill:none;stroke:#443f36;stroke-linejoin:round;stroke-width:2px"/><path d="M133,188.71s-1.18-3.38,2.27-3.61c0,0,2.26-4.81,5.21-.43,0,0,5.08.1,2.56,3.88,0,0,2.58,6.37-2.89,3.91,0,0-2.42-.3-3.12.77s-3.12-.17-3.12-.17" style="fill:none;stroke:#443f36;stroke-linejoin:round;stroke-width:2px"/><path d="M137,188.53s1.06-1.81,3.65-.24" style="fill:none;stroke:#443f36;stroke-linejoin:round;stroke-width:2px"/><path d="M137.73,185.89s1.9,2,1.27,4.18" style="fill:none;stroke:#443f36;stroke-linejoin:round;stroke-width:2px"/><path d="M138.31,182.85s-1.6-3.09-3.73-1.47c0,0-1.23-3.4-4-.47" style="fill:none;stroke:#443f36;stroke-linejoin:round;stroke-width:2px"/><path d="M143.78,191.07s4.27,1.16,4.7-1.16c0,0,3.16-1.86-.36-3.29,0,0,0-3.75-3.19-2.25,0,0-1.56-2.79-4,.33" style="fill:none;stroke:#443f36;stroke-linejoin:round;stroke-width:2px"/><path d="M145.07,185.89s1.79-.16,1.92,3" style="fill:none;stroke:#443f36;stroke-linejoin:round;stroke-width:2px"/><path d="M153.36,190.07s-.81-2.07-2.69-1.22-1.65,2-1.65,2-.3.87,1.19,1.2c0,0-.8,1.46,1.86,1.17,0,0,3.25,1.52,4.08-.37,0,0,2.32-.7.83-2.35,0,0-.9-4.09-4.58-1.87" style="fill:none;stroke:#443f36;stroke-linejoin:round;stroke-width:2px"/><path d="M152,190.07a3.56,3.56,0,0,0,3-.59" style="fill:none;stroke:#443f36;stroke-linejoin:round;stroke-width:2px"/><path d="M131.22,176.88s3.5-1.27,4.29.59c0,0,4-.55,1.25,3.7" style="fill:none;stroke:#443f36;stroke-linejoin:round;stroke-width:2px"/><path d="M69.57,185.86s-1.69-1.86.45-2.63c0,0,.4-5,4.47-.16,0,0,2.91-1.78,2.82,3.31,0,0,1.42,4.64-3.79,4.19C73.49,190.53,65.23,191.53,69.57,185.86Z" style="fill:none;stroke:#443f36;stroke-linejoin:round;stroke-width:2px"/><path d="M71.68,185.8s2.82-.55,3.43,1.79" style="fill:none;stroke:#443f36;stroke-linejoin:round;stroke-width:2px"/><path d="M130,186.42,135.77,138a5.69,5.69,0,0,0,.12-1" style="fill:none;stroke:#443f36;stroke-linejoin:round;stroke-width:2px"/><path d="M135.84,137a4,4,0,1,0-7.94,0,4,4,0,1,0-7.94,0,4,4,0,0,0-8,0,4,4,0,1,0-7.94,0,4,4,0,1,0-7.94,0,4,4,0,1,0-7.94,0,4,4,0,0,0-8,0,4,4,0,1,0-7.94,0" style="fill:none;stroke:#443f36;stroke-linejoin:round;stroke-width:2px"/><path d="M72.3,137a5.07,5.07,0,0,0,.18,1.22l8.09,53.28h43.07" style="fill:none;stroke:#443f36;stroke-linejoin:round;stroke-width:2px"/><line x1="74.08" y1="148.72" x2="134.42" y2="148.72" style="fill:none;stroke:#443f36;stroke-linejoin:round;stroke-width:2px"/><line x1="131.58" y1="172.4" x2="77.68" y2="172.4" style="fill:none;stroke:#443f36;stroke-linejoin:round;stroke-width:2px"/><text transform="translate(87.05 169.53)" style="isolation:isolate;font-size:25px;fill:#443f36;font-family:ArialRoundedMTBold, Arial Rounded MT Bold">PN</text><path d="M66.37,118.21" style="fill:#ebe7d3"/><path d="M107.21,133.56a3.08,3.08,0,0,1,2.51.53l2.47-.3a4.71,4.71,0,0,0-3.13-2.12Z" style="fill:#443f36"/><polygon points="73.11 135.77 71.3 135.77 71.86 138.48 73.44 138.48 73.11 135.77" style="fill:#443f36"/></svg>